<?xml version="1.0" encoding="UTF-8" standalone="no"?>
<svg width="494px" height="130px" viewBox="0 0 494 130" version="1.1" xmlns="http://www.w3.org/2000/svg" xmlns:xlink="http://www.w3.org/1999/xlink">
    <!-- Generator: Sketch 41.1 (35376) - http://www.bohemiancoding.com/sketch -->
    <title>Page 1</title>
    <desc>Created with Sketch.</desc>
    <defs>
        <polygon id="path-1" points="487.286764 0.0615705144 0 0.0615705144 0 129.705277 487.286764 129.705277 487.286764 0.0615705144"></polygon>
    </defs>
    <g id="Page-1" stroke="none" stroke-width="1" fill="none" fill-rule="evenodd">
        <g id="01.1" transform="translate(-480.000000, -40.000000)">
            <g id="Page-1" transform="translate(480.000000, 40.000000)">
                <path d="M4.84548581,30.4667804 L3.88519026,30.0840157 C4.11245583,30.2747404 4.32132997,30.4431042 4.53414512,30.6180448 C4.71674578,30.5654311 4.7206868,30.561485 4.7206868,30.561485 L4.84548581,30.4667804 Z" id="Fill-18" fill="#FEFEFE"></path>
                <path d="M22.5172885,25.4153391 C22.861471,25.2443446 23.2069673,25.0707194 23.530131,24.8852561 L22.6933208,24.7510911 C22.4594869,24.9168243 22.2492991,25.0957109 22.0627574,25.2864355 C22.2151435,25.3324725 22.366216,25.3719328 22.5172885,25.4153391" id="Fill-20" fill="#FEFEFE"></path>
                <path d="M8.62873499,30.8482297 C7.46876103,30.4470502 6.34556993,30.0103565 4.71004604,30.2010812 L4.02430832,30.7140648 L6.30484604,31.6255971 C7.94431094,32.2872144 8.75484768,31.6808415 8.62873499,30.8482297" id="Fill-22" fill="#FEFEFE"></path>
                <g id="Group-26">
                    <mask id="mask-2" fill="white">
                        <use xlink:href="#path-1"></use>
                    </mask>
                    <g id="Clip-25"></g>
                    <path d="M41.2910008,54.2375021 L39.73167,52.6946054 L41.3146469,54.2375021 L41.2910008,54.2375021 Z M24.1606944,86.6764784 L23.8848229,86.3923644 L26.8931359,78.9396339 L24.1606944,86.6764784 Z M16.3574721,41.5181403 C16.7187324,41.6601973 16.9985449,41.8969589 17.4543897,42.2757776 L16.3574721,41.5181403 Z M458.059269,7.01276093 C461.394686,6.68918668 479.066226,3.79280254 487.253042,2.29857347 C488.9976,1.98026059 422.578253,9.51848836 398.331776,11.6651273 C380.154471,13.2777372 379.445087,13.926201 361.29537,15.9728739 C340.037501,18.3404904 320.244378,18.4904394 299.364846,19.0441986 C297.31026,18.8061216 295.25042,18.66538 293.18007,18.8337438 L286.90465,19.3230512 C270.563862,19.5348214 254.51865,18.8337438 238.552259,18.0708452 C257.626802,16.3753687 276.664563,14.5102131 295.398865,11.5086015 C296.749322,11.3612832 297.629483,10.6457369 297.487606,9.95518207 C297.239322,9.24884315 296.020233,8.77400452 294.67109,8.91474616 C268.52504,11.1863426 242.25025,12.5608755 215.999107,14.1366558 C208.751569,8.07818834 193.068931,9.15150781 179.490798,9.38169274 C174.485701,9.43956781 169.848433,10.3011171 165.182263,11.4980788 L171.694144,12.0399999 C165.251888,12.4806396 160.24285,9.99990371 154.837082,11.8703207 C154.361532,11.8084996 153.885982,11.7387865 153.376277,11.7045876 C140.686188,8.67666917 125.945454,9.91572179 112.262228,8.95157575 C112.570941,9.75261932 112.945338,10.5378788 113.247483,11.3205076 C110.71472,10.8062087 109.203995,9.40799959 106.425575,9.08179466 L108.740268,10.7549103 L108.577373,10.7364955 C105.595333,9.55268727 102.015572,9.11336288 98.3083848,9.21859028 C89.8273067,5.82763736 82.633629,8.71612945 71.8523081,8.17552369 C70.4374814,7.26925272 61.099888,5.95391023 58.6643368,5.94075681 C57.6252208,5.68689571 56.4061315,5.53563133 55.6520828,5.14497461 C48.8630166,1.52778278 44.455641,1.64090223 35.3623909,0.0611759116 L40.7234937,2.03550498 C38.0987735,1.5409362 35.502954,1.02663729 32.5957939,1.12923401 C32.9110756,1.57908114 33.3196282,2.0236669 33.6427919,2.4787754 C24.5626786,-0.451807657 12.2877106,1.37914908 6.22510604,6.52476887 C0.148051037,11.6914341 2.56389716,18.1905414 11.6308737,21.0974482 L12.9300971,21.54598 C8.37953107,22.5219641 4.70912647,18.0379616 2.54550572,20.9356611 C1.38553176,22.5219641 2.72022434,23.4676954 3.04076075,25.232885 C2.75963455,27.8267404 6.44186222,29.883936 11.2170665,29.8207996 C12.5281129,29.7984388 13.5370144,30.5508147 14.6654602,30.2588086 C20.2170457,30.9230566 25.8855481,31.4031566 31.2873748,32.2831207 C32.3461959,32.5172517 33.6388509,32.2055155 34.1800845,31.5820432 C34.6398703,30.9704089 34.1551247,30.2877462 33.0582071,30.0786067 C29.1552822,29.0644777 25.3758427,27.9832661 21.5990305,26.8731171 C21.2837488,27.0335889 20.9842312,26.9415149 21.1681455,26.7455289 C20.8213356,26.6455628 17.702674,26.3219886 17.3637462,26.2193919 C17.6212263,26.0944343 24.0516595,33.6918525 23.6667531,34.0640944 C23.3738038,33.7918185 21.3310411,33.1091558 17.1075798,32.8171498 C17.1075798,32.8171498 17.1259712,33.1091558 17.27573,33.5090199 C17.1075798,33.5458495 15.1488922,33.1144172 13.5028589,33.0394426 C11.9382734,33.1722922 4.40304048,32.1094955 4.40304048,32.1094955 L2.00821314,32.8618714 C2.00821314,32.8618714 1.59571957,33.1893917 1.2883199,33.5616336 C1.26730112,33.947029 1.26730112,33.947029 -0.000394102139,35.3570761 C-0.000394102139,35.3570761 -0.00696247114,35.7990312 0.136227973,36.259401 C0.543466851,36.6724186 0.543466851,36.6724186 0.687970969,37.8772723 C0.687970969,37.8772723 1.15563884,38.3165967 1.82429881,38.6809465 C2.47062632,38.8821939 2.63483554,38.936123 5.00601675,39.5556493 C4.80371099,39.7661041 4.61979665,39.992343 4.4569011,40.2225279 C4.07199468,42.4862324 4.07199468,42.4862324 7.16175546,47.5305708 C7.16175546,47.5305708 8.83537588,48.8695894 11.504761,49.7574456 C14.5892671,50.096804 14.5892671,50.0928579 18.1466958,50.4282703 C18.1466958,50.4282703 18.9257043,50.5861114 20.2590832,50.77289 C21.2732394,51.5634108 21.5057597,51.775181 22.2611221,52.5038807 C22.2611221,52.5038807 22.2611221,52.4999347 22.2755725,52.5130881 C21.5990305,52.59727 20.944821,52.7840487 20.40096,53.0589552 C18.8245515,53.8678909 18.6406371,55.1437731 20.0081716,55.9369246 C18.3490015,59.4751959 19.4892704,62.5399438 21.8052773,65.4073905 C21.1602635,66.5872527 20.8830783,67.8039445 21.0105047,69.0403664 C18.496133,72.1156371 16.9696441,75.3171807 16.3903139,78.6870882 L16.1696167,81.6058331 C16.9906628,84.024748 5.8809235,85.6281504 9.1703627,87.2262916 L11.0778171,92.074644 L16.88951,100.721705 C21.2220061,106.891977 20.1355979,98.3277821 25.362706,104.175795 L38.8475675,101.751619 C41.6759072,104.21657 46.1016743,105.915993 51.2604713,106.593394 L56.7082765,107.262904 C57.849859,107.258958 58.9875006,107.240543 60.1356515,107.207659 C54.4329935,110.447348 54.2228057,109.858074 55.3972301,114.447304 C57.0091078,120.483411 59.2673131,123.596827 66.8695434,125.861846 C65.7936445,127.71911 65.4836175,129.42774 67.6393562,129.705277 C94.1006876,128.862143 118.636173,124.466268 144.696834,119.8652 C144.882062,119.744188 145.019998,119.61397 145.132974,119.466651 C165.146794,116.501869 184.842705,113.467374 201.532931,111.544343 C232.667,108.234942 385.168764,95.9285974 404.478455,88.8573162 C405.03808,88.6692223 405.089314,88.241736 404.789796,87.9392072 C404.33001,87.6432551 403.544433,87.6327324 403.033414,87.8510792 C390.344639,89.1782598 375.300447,90.3844289 376.821681,88.8310094 C377.311681,88.3798469 377.596748,87.8865935 377.739939,87.3972861 C397.20333,81.8254953 429.503941,75.9643292 432.437375,75.3303341 C433.071879,75.0988339 433.678797,75.2908739 433.380593,74.9870298 C433.069252,74.6134725 432.349359,74.4793076 431.780538,74.6621402 C428.778793,75.3369109 386.305092,78.6331591 397.756387,76.558864 C411.574921,74.0925969 424.267638,70.7358429 438.209658,69.1258637 C438.92561,69.1008721 439.412983,68.7299456 439.335476,68.3813798 C439.234323,68.0262373 438.64317,67.7302853 437.923277,67.8473508 C423.98257,69.1403324 419.893104,69.127179 407.522238,69.9518987 C410.355832,68.8299116 400.632018,69.2587132 403.399929,68.6076187 C407.964946,67.8013138 413.889614,67.9775697 418.38632,67.6684642 C417.381359,63.9144767 428.106192,60.9523255 425.564234,57.2996194 C428.537077,57.0786419 432.999627,56.7169227 433.115231,55.6054583 C433.481746,52.2855338 435.393141,48.3131996 442.959902,45.4207614 C445.94851,44.6013031 450.77232,45.3510483 451.77334,44.5526354 C453.33267,43.2938526 447.565642,42.7874458 449.124973,41.528663 C436.311399,42.5217466 423.777637,44.0186063 411.1309,45.4457529 C428.592252,42.1402973 448.190951,38.2810824 462.102757,37.4392632 C461.702086,37.6970704 461.650853,38.121926 462.164499,38.3705257 C462.605894,38.5862419 463.4808,38.5507276 463.901176,38.2968665 C464.388549,38.0022298 464.291337,37.5760589 463.842061,37.3603427 L468.76571,35.3070931 C459.911549,36.6829413 436.283812,39.5398652 436.295635,39.0032055 C436.335045,38.175855 435.069977,37.5642208 433.481746,37.5471213 L425.742893,37.6576101 C427.857908,36.535623 430.870162,36.8434131 430.983138,35.1558287 C431.106623,33.5419035 430.020215,32.0963421 428.221796,31.0111845 C439.565369,29.1499749 466.318336,21.1408545 466.092384,20.7896581 C465.85855,20.4502997 466.033269,19.9123247 465.396137,20.0649044 C449.436314,21.5144118 398.775797,26.6324094 385.265976,26.2378067 C365.588456,25.7235078 349.386917,28.4252212 331.15838,27.57551 C324.505935,27.2335209 317.888961,27.0164894 311.323219,26.9559837 C312.237536,26.1549401 312.777456,25.2263083 312.769574,24.2319094 C312.769574,23.9819943 312.693381,23.742602 312.615874,23.4953176 C318.396039,23.4676954 324.210359,23.4032436 330.119264,23.3427379 C384.883697,22.7192655 405.886714,14.2997583 458.059269,7.01276093 L458.059269,7.01276093 Z" id="Fill-24" fill="#FEFEFE" mask="url(#mask-2)"></path>
                </g>
                <path d="M242.303586,125.897771 L242.25498,125.887249 L242.441521,125.242731 L242.303586,125.897771 Z M303.171347,110.801586 C303.507648,110.725296 303.817675,110.637168 304.148721,110.556932 C305.631858,110.399091 307.103173,110.208366 308.586311,110.03211 C306.498883,110.379361 302.974296,110.697674 300.517726,111.064654 C300.960434,110.960742 302.73258,110.906813 303.171347,110.801586 L303.171347,110.801586 Z M326.027958,108.199838 L337.078582,103.71189 C329.901982,105.506017 324.690638,106.797683 319.797203,107.868372 C319.710501,107.772352 319.5279,107.665809 319.204736,107.546113 C317.775459,108.11171 310.975883,108.72729 309.093389,109.269212 C308.908161,109.316564 308.71111,109.365232 308.531137,109.421791 C310.446473,109.265266 312.557547,109.12847 314.437414,108.977206 C314.003902,109.058757 313.573017,109.144254 313.128995,109.225805 C313.160523,109.213967 313.19862,109.20476 313.226207,109.195552 C313.31685,109.160038 313.34181,109.120578 313.295831,109.107424 C313.245912,109.090325 313.136877,109.099532 313.058056,109.131101 C312.692855,109.241589 312.292185,109.342871 311.917788,109.452044 C311.65768,109.496766 311.4002,109.542803 311.134838,109.59147 C309.177464,109.832178 307.212208,110.06894 305.249579,110.285971 C306.360947,110.005803 307.457865,109.715113 308.531137,109.421791 C306.351752,109.59147 304.412769,109.791403 303.381535,110.066309 C300.629389,110.777909 298.150486,111.361921 295.277482,111.98934 C295.047589,112.040638 294.829519,112.073522 294.604881,112.122189 C291.148605,112.598343 287.232543,113.113958 282.729269,113.699285 C283.312541,113.570382 283.899753,113.454631 284.464633,113.324412 C284.686643,113.275745 284.810129,113.20077 284.766778,113.153418 C284.705035,113.103435 284.494847,113.099489 284.282032,113.144211 C282.206427,113.550651 280.116372,113.933416 278.028945,114.305658 C275.585511,114.620025 272.992319,114.954122 270.209958,115.305318 C268.827973,115.255335 267.025613,115.386869 265.403226,115.636785 C264.584807,115.767003 263.842581,115.940629 263.101669,116.144507 L264.192018,116.028757 C264.0173,116.06164 263.864914,116.110308 263.696763,116.141876 C258.053221,116.863999 251.755469,117.670304 244.680021,118.581836 C244.438306,118.552899 244.109887,118.556845 243.724981,118.612089 L242.806723,118.744939 C241.876642,118.815967 240.704845,118.989593 239.576399,119.239508 C238.240393,119.410502 236.870231,119.584127 235.485619,119.765645 L236.535244,120.2076 C236.181866,120.37991 235.870525,120.557481 235.662965,120.749521 C235.430444,120.981021 235.846879,121.086248 236.030793,121.234882 C236.112241,121.503212 237.189453,121.465067 238.349427,121.221729 C238.489991,121.191476 238.599025,121.155962 238.731707,121.125709 L238.844682,121.173061 C238.553047,121.278288 238.240393,121.363786 237.959266,121.476905 L237.959266,121.450598 C237.661062,121.465067 237.361545,121.487428 236.979266,121.596601 L236.843957,121.686045 L237.43511,121.646584 C237.490285,121.646584 237.528381,121.633431 237.57436,121.633431 C237.490285,121.686045 237.461384,121.725505 237.513931,121.759704 C237.603261,121.812318 237.942189,121.778119 238.240393,121.699198 C238.688355,121.613701 239.116613,121.540042 239.547498,121.466382 L240.72455,121.960951 C240.72455,121.960951 240.716668,121.963582 240.704845,121.967528 C240.653611,121.957005 240.591869,121.947798 240.510421,121.937275 C239.794469,122.054341 239.789214,122.060917 239.043047,122.196398 C239.043047,122.196398 239.057498,122.218758 239.100849,122.238488 C239.073262,122.250327 238.839428,122.335824 238.553047,122.392384 C238.273234,122.464727 238.273234,122.464727 237.552027,122.618622 L237.951384,122.606784 L237.61377,122.631776 L237.758274,122.705435 L237.548086,122.637037 L237.474521,122.750157 L236.709963,122.697543 L236.290901,122.883006 C236.290901,122.883006 236.225217,122.925097 236.189748,122.964558 C236.204198,122.996126 236.204198,122.996126 236.033421,123.161859 C236.033421,123.161859 236.049185,123.196058 236.099104,123.219734 C236.204198,123.228941 236.204198,123.228941 236.290901,123.305231 C236.290901,123.305231 236.407818,123.309177 236.551008,123.296024 L237.169748,123.20395 L237.108006,123.274978 C237.146102,123.456496 237.153984,123.456496 237.934307,123.674842 C237.934307,123.674842 238.290312,123.695888 238.777685,123.651166 L239.925836,123.449919 L240.292351,123.397305 C240.490716,123.414405 240.536694,123.426243 240.691708,123.45255 L240.696963,123.45255 C240.586614,123.485433 240.48152,123.519632 240.409268,123.555146 C240.179375,123.674842 240.195139,123.769547 240.448678,123.785331 C240.319938,124.099698 240.63522,124.281215 241.118652,124.416696 C241.055595,124.523238 241.063478,124.620574 241.127848,124.708702 C240.849349,125.019122 240.744255,125.311129 240.798115,125.574197 L240.884818,125.789913 C241.109456,125.939862 241.537714,126.018783 242.102593,126.033252 L242.277312,126.051666 L242.249725,126.258175 C243.14565,126.569911 243.286214,126.634363 244.297742,126.922423 L244.990048,127.036858 C245.511577,127.14077 246.247234,127.146031 247.073535,127.053957 L247.948442,126.964514 L248.489676,126.863233 C247.688334,127.259151 247.36123,127.678745 247.688334,127.994427 C248.241391,128.50478 252.638257,127.740566 254.804505,127.267043 C260.697646,126.18057 302.316146,116.860053 305.285049,115.752535 C305.370437,115.722282 305.36781,115.688083 305.300813,115.670983 C305.219365,115.667037 305.090625,115.688083 305.015745,115.722282 C300.143329,117.11786 295.192093,118.38585 289.804717,119.38288 L287.980024,119.693301 C287.910399,119.697247 287.830265,119.705139 287.754072,119.716977 L286.071256,119.912963 L286.651899,119.811682 C287.032865,119.755122 287.321873,119.626218 287.321873,119.520991 C287.306109,119.482846 287.232543,119.455224 287.130077,119.438124 C288.500238,119.102712 289.820481,118.738362 291.140723,118.364805 C291.547962,118.281938 291.902654,118.180657 292.213994,118.07543 L297.060137,117.433542 L297.456866,117.395397 C297.991532,117.320423 298.477591,117.177051 298.683838,117.015263 C298.750835,116.966596 298.784991,116.921874 298.792873,116.879783 C302.330596,116.027441 305.966845,115.180361 309.193228,114.079419 C309.357437,114.026805 309.434944,113.9663 309.381084,113.925524 C309.446767,113.920263 309.540038,113.90974 309.605722,113.876856 C309.976178,113.713754 310.404435,113.575643 310.862908,113.424378 C310.961433,113.382288 311.003471,113.345458 310.937787,113.329674 C310.874731,113.320466 310.747304,113.329674 310.660602,113.361242 C310.190307,113.519083 309.746285,113.672978 309.333791,113.846603 C309.294381,113.861072 309.274676,113.879487 309.274676,113.895271 C309.159073,113.891325 308.998804,113.913686 308.846418,113.955777 C305.390142,114.829164 302.090194,115.745958 298.555098,116.460189 C300.226091,115.970882 301.957513,115.526296 303.766442,115.033042 C305.955022,114.441138 307.932101,113.804512 310.140387,113.216554 C310.262559,113.191563 310.321674,113.148157 310.299341,113.123165 C310.262559,113.099489 310.16666,113.099489 310.049743,113.133688 C305.49655,114.279351 301.676387,115.681506 296.847322,116.545686 L296.27456,116.639076 L300.388986,115.158 C304.775343,114.241206 309.115721,113.253384 313.253794,111.96961 C313.467923,111.915681 313.596663,111.834129 313.55988,111.784146 C313.527038,111.738109 313.324732,111.738109 313.115858,111.794669 C310.660602,112.324752 308.181699,112.779861 305.685719,113.216554 L306.173092,113.040298 L306.674915,112.907449 C308.243442,112.578613 309.811969,112.219525 311.354222,111.827553 C311.933552,111.697334 312.349986,111.460572 312.284303,111.309308 C312.194973,111.169881 311.699718,111.155413 311.147975,111.268532 L311.174248,111.263271 C319.196854,109.382331 326.027958,108.199838 326.027958,108.199838 L326.027958,108.199838 Z" id="Fill-27" fill="#FEFEFE"></path>
                <polygon id="Fill-29" fill="#FEFEFE" points="236.7654 121.714193 236.812692 121.698409 236.84422 121.686571 236.58674 121.698409"></polygon>
                <path d="M337.442338,109.247903 C337.316226,109.23738 337.15333,109.276841 337.079764,109.316301 C336.982552,109.368915 337.006198,109.403113 337.129684,109.40969 C337.23215,109.414952 337.398987,109.383383 337.496199,109.334716 C337.563196,109.292625 337.538236,109.249218 337.442338,109.247903" id="Fill-31" fill="#FEFEFE"></path>
                <path d="M302.07062,9.22150013 C323.143262,7.66676531 344.252686,5.68980556 365.316132,3.48792224 C366.025515,3.41820909 366.575945,3.06701265 366.573317,2.68950936 C366.573317,2.35541237 365.988733,2.10286661 365.342405,2.19099456 C344.260568,4.33368746 323.265433,6.28302502 302.186223,7.84170586 C301.483408,7.92720312 300.93692,8.27050751 300.875177,8.63880341 C300.879118,9.01499136 301.408529,9.26227574 302.07062,9.22150013" id="Fill-33" fill="#FEFEFE"></path>
                <path d="M480.725134,36.8815741 C480.176018,36.6250823 479.354972,36.6987415 478.918832,36.9473413 C478.393363,37.2485547 478.428832,37.6378961 478.970066,37.8812344 C479.432479,38.106158 480.265348,38.110104 480.775053,37.8154673 C481.211193,37.5602908 481.179665,37.0920289 480.725134,36.8815741" id="Fill-35" fill="#FEFEFE"></path>
                <path d="M491.519197,33.1790166 L489.887614,33.8261651 C493.410887,33.3039741 494.703543,32.9974993 491.519197,33.1790166" id="Fill-37" fill="#FEFEFE"></path>
                <path d="M320.839209,43.7530548 C322.615296,43.6399353 324.857737,43.642566 326.627256,43.7609468 C324.698783,43.7570008 322.774251,43.7530548 320.839209,43.7530548" id="Fill-39" fill="#D65441"></path>
                <path d="M204.943491,78.305918 C203.519468,78.9977882 200.138072,79.838292 195.859437,79.8356613 C183.542431,79.8238232 177.214464,72.0896094 177.218405,61.9364808 C177.228915,49.7629861 185.903103,43.0507934 196.684424,43.0600008 C200.854024,43.0678929 204.025233,43.8623598 205.450569,44.6594573 L203.757243,51.0020388 C202.169012,50.3167453 199.896356,49.6788042 196.995764,49.6748582 C190.65072,49.6695968 185.677151,53.5314423 185.671896,61.4669035 C185.669269,68.6092132 189.895358,73.1129459 197.027293,73.1129459 C199.506195,73.1182073 202.153248,72.6407379 203.791399,71.9567598 L204.943491,78.305918 Z" id="Fill-41" fill="#CB2026"></path>
                <path d="M210.681749,41.7011205 L218.710924,41.7050665 L218.696473,56.523715 L218.809449,56.523715 C219.6502,55.3596369 220.709022,54.4573119 221.974089,53.8272629 C223.195806,53.1919524 224.671062,52.8183952 226.154199,52.8249719 C231.281468,52.8302333 235.184393,56.3790273 235.173884,64.2066304 L235.162061,79.2857166 L227.131573,79.2765092 L227.142082,65.0484496 C227.149964,61.6614427 225.982108,59.3293405 222.973795,59.3293405 C220.864035,59.3293405 219.53197,60.7012427 218.960522,62.1823183 C218.751648,62.657157 218.693846,63.3477118 218.693846,63.9304085 L218.672827,79.2725632 L210.642339,79.2646711 L210.681749,41.7011205 Z" id="Fill-43" fill="#CB2026"></path>
                <path d="M254.507747,74.119709 C251.071176,74.1170783 249.225464,70.7800545 249.233346,66.3381429 C249.233346,62.524965 250.711229,58.5592075 254.51957,58.5631535 C258.162387,58.5670995 259.641584,62.4841894 259.633702,66.2934212 C259.629761,70.9997167 257.621153,74.1210244 254.507747,74.119709 M271.276793,53.3951729 C271.276793,51.5431706 270.809125,49.7398361 270.116819,48.4166016 L264.461453,49.3636482 C265.092016,50.4777432 265.570194,51.694435 265.570194,53.072914 C265.616172,54.3395888 264.982981,54.9735838 263.771774,54.9722685 C262.502765,54.9722685 260.810753,53.9686622 259.494452,53.5385452 C258.065175,53.0637066 256.528177,52.796692 254.733698,52.796692 C246.433907,52.7888 240.93881,58.1264598 240.925673,66.5367596 C240.925673,74.9010225 246.737366,79.8782784 254.289677,79.8848551 C261.211424,79.8927472 267.929552,75.5626397 267.933493,66.0869125 C267.941375,63.2326193 267.251696,60.9018324 266.145583,58.9972165 C269.420572,58.6828496 271.272852,56.6177619 271.276793,53.3951729" id="Fill-45" fill="#CB2026"></path>
                <path d="M257.337794,84.8267284 C257.337794,86.3656791 256.160742,87.6547147 254.538355,87.6547147 C252.92385,87.6533994 251.710015,86.3604177 251.710015,84.8201517 C251.710015,83.1562434 252.967201,81.948759 254.580393,81.948759 C256.160742,81.948759 257.337794,83.1628201 257.337794,84.8267284" id="Fill-47" fill="#CB2026"></path>
                <polygon id="Fill-49" fill="#CB2026" points="293.164831 50.4486742 283.553994 50.4434128 283.556621 43.669399 310.93227 43.6904445 310.923074 50.4644583 301.205829 50.4565662 301.175614 79.3467485 293.149067 79.3388565"></polygon>
                <path d="M339.410222,38.6863555 L333.33448,46.6218167 L329.208231,46.61524 L333.288502,38.6810942 L339.410222,38.6863555 Z M318.254819,66.3966756 C318.242996,70.8425332 320.092648,74.1756111 323.529219,74.1821878 C326.6978,74.1821878 328.655174,71.0648261 328.659115,66.3545847 C328.663056,62.5427222 327.189114,58.632209 323.546297,58.6243169 C319.741897,58.6243169 318.254819,62.5887591 318.254819,66.3966756 L318.254819,66.3966756 Z M326.512572,43.7609468 L331.21027,51.8016354 L326.090883,51.7976894 L323.766994,47.1926754 L323.6619,47.1926754 L321.280209,51.7937434 L316.149,51.7911127 L320.917635,43.7530548 L326.512572,43.7609468 Z M336.962847,66.1493912 C336.951024,75.6224878 330.240778,79.9539106 323.311149,79.9447032 C315.760152,79.9407572 309.948459,74.9648166 309.960282,66.6044997 C309.968164,58.1889385 315.460634,52.8499634 323.812973,52.8591708 C331.688447,52.8696935 336.962847,58.3178421 336.962847,66.1493912 L336.962847,66.1493912 Z" id="Fill-51" fill="#CB2026"></path>
                <path d="M351.710543,46.5360564 L351.707916,53.5178943 L357.468376,53.5231557 L357.456553,59.4474582 L351.700034,59.4421969 L351.694779,68.810066 C351.692152,71.9261124 352.477729,73.3624664 354.863361,73.3624664 C355.973415,73.3624664 356.498884,73.3085373 357.238483,73.1533269 L357.288402,79.2328399 C356.280815,79.6077125 354.327382,79.9194486 352.104646,79.9194486 C349.519336,79.9194486 347.351774,79.0131777 346.032845,77.6952045 C344.55759,76.1549384 343.817991,73.6649951 343.817991,70.0201811 L343.825873,59.4369355 L340.401126,59.4343048 L340.401126,53.5086869 L343.833755,53.5100023 L343.836383,48.6932181 L351.710543,46.5360564 Z" id="Fill-53" fill="#CB2026"></path>
                <path d="M283.042843,50.4017164 L283.042843,50.3333186 C286.332283,50.3793556 289.812204,50.2478214 292.984727,50.4122392 C289.6677,50.4082932 286.362497,50.4056625 283.042843,50.4017164" id="Fill-55" fill="#E3876A"></path>
                <path d="M301.249574,50.4177636 C304.466761,50.2599225 307.990034,50.3993488 311.322825,50.3598886 C308.126656,50.515099 304.63097,50.376988 301.32314,50.4177636 L301.249574,50.4177636 Z" id="Fill-57" fill="#E3876A"></path>
                <path d="M301.249574,50.4177636 L301.32314,50.4177636 C301.267965,59.9447892 301.392764,69.6572781 301.228555,79.0711843 C301.23381,69.5178518 301.244319,59.9684654 301.249574,50.4177636" id="Fill-59" fill="#EED3AE"></path>
                <path d="M274.301264,52.7402638 C274.408985,52.9309885 274.408985,53.5912904 274.2855,53.774123 C274.301264,53.432134 274.301264,53.0848836 274.301264,52.7402638" id="Fill-61" fill="#E3876A"></path>
                <path d="M340.138785,53.4222689 C340.138785,55.3768678 340.134844,57.3340975 340.134844,59.2900117 L340.087552,59.2900117 C340.108571,57.3564583 339.97983,55.2400722 340.138785,53.4222689" id="Fill-63" fill="#E3876A"></path>
                <path d="M357.724673,53.4364746 C357.881001,55.2542779 357.73781,57.37461 357.791671,59.3081635 L357.716791,59.3081635 C357.716791,57.3469878 357.716791,55.3923889 357.724673,53.4364746" id="Fill-65" fill="#E3876A"></path>
                <path d="M198.911364,72.8338302 L199.809916,72.8338302 C199.670667,72.9469497 199.054554,72.9469497 198.911364,72.8338302" id="Fill-67" fill="#D65441"></path>
                <path d="M357.496357,74.0811695 L357.5581,74.0811695 L357.5581,76.0147229 L357.491102,76.0147229 C357.496357,75.3675744 357.496357,74.7217413 357.496357,74.0811695" id="Fill-69" fill="#E3876A"></path>
                <path d="M357.491234,76.0143283 L357.558231,76.0143283 L357.558231,77.9439358 C357.401904,77.4388442 357.538526,76.6299086 357.491234,76.0143283" id="Fill-71" fill="#D65441"></path>
                <path d="M329.457697,46.5238237 C330.88172,46.4817328 332.49097,46.613267 333.802017,46.459372 C332.645984,46.7303325 330.722765,46.5922215 329.457697,46.5238237" id="Fill-73" fill="#E3876A"></path>
                <path d="M183.558983,48.9328735 C183.76523,48.673751 183.991182,48.4435661 184.251289,48.2423187 C184.052925,48.5014412 183.819091,48.7342568 183.558983,48.9328735" id="Fill-75" fill="#EED3AE"></path>
                <path d="M312.836571,57.0568233 C313.058582,56.7727093 313.30818,56.5227942 313.591934,56.299186 C313.369923,56.5793539 313.108502,56.8345304 312.836571,57.0568233" id="Fill-77" fill="#E8A793"></path>
                <path d="M333.596295,38.7255528 C334.486966,38.6045412 335.585198,38.6584703 336.772759,38.6584703 C337.861794,38.6584703 339.243779,38.3980325 340.018847,38.6584703 C340.049061,38.6729391 339.982064,38.8386722 339.943967,38.7992119 C337.966888,38.6361095 335.694232,38.7676437 333.596295,38.7255528" id="Fill-79" fill="#EED3AE"></path>
                <path d="M197.28451,43.0786787 C197.384349,42.9168916 197.769256,43.0510565 197.979443,43.0089656 C197.879604,43.164176 197.493384,43.0313264 197.28451,43.0786787" id="Fill-81" fill="#D65441"></path>
                <path d="M200.113375,43.0126485 C200.343268,43.0560548 200.751821,42.9232052 200.868738,43.0810463 C200.638845,43.0402707 200.234233,43.1691743 200.113375,43.0126485" id="Fill-83" fill="#D65441"></path>
                <path d="M198.113307,49.6400016 C198.210519,49.4821605 198.582288,49.6123794 198.79379,49.5663424 L198.79379,49.6400016 L198.113307,49.6400016 Z" id="Fill-85" fill="#E3876A"></path>
                <path d="M199.83238,49.5700254 C200.063587,49.6134317 200.470826,49.4818974 200.589056,49.6397385 L199.83238,49.6397385 L199.83238,49.5700254 Z" id="Fill-87" fill="#E3876A"></path>
                <path d="M283.042843,50.3337132 L283.042843,50.402111 C282.937749,48.3067705 282.945632,45.7286992 283.058607,43.6359893 C283.058607,45.8694408 283.058607,48.1002617 283.042843,50.3337132" id="Fill-89" fill="#EED3AE"></path>
                <path d="M357.717054,59.3079004 L357.791934,59.3079004 C355.918635,59.4631108 353.762896,59.3249998 351.784503,59.3684061 C353.63547,59.206619 355.763621,59.348676 357.717054,59.3079004" id="Fill-91" fill="#EED3AE"></path>
                <path d="M178.930385,60.2507379 C178.888347,60.4611927 179.015774,60.8452727 178.864701,60.9399773 C178.906739,60.7321532 178.770117,60.3467579 178.930385,60.2507379" id="Fill-93" fill="#D65441"></path>
                <path d="M262.280623,65.0876468 C262.444832,65.2270731 262.30821,65.6585054 262.355502,65.9176279 C262.196548,65.7768863 262.326602,65.3441386 262.280623,65.0876468" id="Fill-95" fill="#E3876A"></path>
                <path d="M328.826477,65.1498625 C328.978863,65.2879735 328.847496,65.7167751 328.889534,65.9745822 C328.73452,65.8351559 328.865887,65.4050389 328.826477,65.1498625" id="Fill-97" fill="#E3876A"></path>
                <path d="M251.596777,65.1498625 C251.549485,65.4050389 251.688734,65.839102 251.529779,65.9772129 C251.56919,65.7207211 251.436509,65.2879735 251.596777,65.1498625" id="Fill-99" fill="#E3876A"></path>
                <path d="M318.13488,65.2044492 C318.088902,65.4635717 318.22421,65.8963194 318.063942,66.041007 C318.111234,65.7831999 317.975926,65.3504522 318.13488,65.2044492" id="Fill-101" fill="#E3876A"></path>
                <path d="M262.355108,66.2629053 C262.30913,66.5364965 262.439183,66.9929204 262.280229,67.1573382 C262.327521,66.8850623 262.196154,66.4246924 262.355108,66.2629053" id="Fill-103" fill="#E3876A"></path>
                <path d="M318.064205,66.3798393 C318.224473,66.5192656 318.089164,66.9585899 318.135143,67.2098204 C317.970934,67.0730247 318.106242,66.6350157 318.064205,66.3798393" id="Fill-105" fill="#E3876A"></path>
                <path d="M328.889271,66.3232795 C328.847233,66.6021321 328.975973,67.0559253 328.818332,67.2177124 C328.865625,66.9414905 328.730316,66.4850666 328.889271,66.3232795" id="Fill-107" fill="#E3876A"></path>
                <path d="M343.638675,70.6842975 C343.797629,70.7776868 343.662321,71.1643975 343.708299,71.373537 C343.549345,71.2788323 343.680712,70.893437 343.638675,70.6842975" id="Fill-109" fill="#D65441"></path>
                <path d="M196.353115,79.4575004 C196.59089,79.5048527 196.995502,79.3706877 197.11636,79.5258982 C196.886467,79.4851225 196.473973,79.6179721 196.353115,79.4575004" id="Fill-111" fill="#D65441"></path>
                <path d="M199.183294,79.5312911 C199.322543,79.37345 199.756056,79.5076149 200.017477,79.4589472 C199.867718,79.619419 199.43946,79.4852541 199.183294,79.5312911" id="Fill-113" fill="#D65441"></path>
                <path d="M353.143499,79.6662452 C353.244652,79.5123501 353.634813,79.6399384 353.833178,79.6004781 C353.742534,79.7556885 353.357628,79.6254696 353.143499,79.6662452" id="Fill-115" fill="#D65441"></path>
                <path d="M340.134975,59.2900117 C341.287067,59.333418 342.615192,59.1992531 343.654307,59.3649863 C342.478569,59.3163186 341.124172,59.4517989 340.064037,59.2900117 L340.134975,59.2900117 Z" id="Fill-117" fill="#EED3AE"></path>
                <path d="M357.429622,72.9777287 C357.701553,72.8383024 357.51107,73.7708802 357.558362,74.081301 L357.49662,74.081301 C357.453268,73.7340506 357.588577,73.2079136 357.429622,72.9777287" id="Fill-119" fill="#EED3AE"></path>
                <path d="M198.793264,49.5662109 C199.137447,49.5701569 199.48557,49.5701569 199.83238,49.5701569 L199.83238,49.6398701 L198.793264,49.6398701 L198.793264,49.5662109 Z" id="Fill-121" fill="#EED3AE"></path>
                <path d="M361.360266,61.3265565 C361.360266,61.739574 361.360266,62.1486456 361.357638,62.5616631 C361.209193,62.2775491 361.333992,61.7145825 361.294582,61.3265565 L361.360266,61.3265565 Z" id="Fill-123" fill="#EED3AE"></path>
                <path d="M354.530344,73.1125513 L356.118576,73.1125513 C355.74812,73.2269861 354.902114,73.2230401 354.530344,73.1125513" id="Fill-125" fill="#E3876A"></path>
                <path d="M161.284462,65.7037532 C160.321539,73.8615073 159.224621,81.8824658 158.302422,90.0823108 C157.44328,90.6479081 156.405477,91.02015 155.65931,90.159916 C155.755209,89.9060549 155.408399,90.1007256 155.504297,89.8481798 C155.623841,89.061605 155.969338,88.0908823 156.205799,87.1227902 C156.592019,85.5338565 157.172663,84.0317354 156.053413,83.1504559 C155.95226,82.8334584 155.785423,82.5874893 155.354538,82.6032734 C155.11545,82.3993953 154.658291,82.4164948 154.42183,82.2126167 C154.111803,77.6154947 153.955476,72.8684237 153.578451,68.3462763 C153.482553,68.0490089 153.800462,67.3426699 153.345931,67.4097524 C155.965396,66.8178483 158.662369,66.2969727 161.284462,65.7037532" id="Fill-127" fill="#EDC022"></path>
                <path d="M164.399051,62.0451281 C163.982616,63.2157829 163.462402,64.2759489 162.994734,65.3939901 C162.379934,65.4505498 161.912266,65.6596892 161.28433,65.7044109 C160.321407,73.8608496 159.22449,81.8818081 158.302291,90.0829685 C157.443148,90.6472504 156.405346,91.0208077 155.659179,90.1592583 C156.150493,90.8103529 156.929502,91.1747027 157.603416,91.6416493 C158.019851,91.3312285 158.626768,91.2128477 159.082613,90.9432024 C160.073123,82.7630875 161.062319,74.580342 162.138218,66.4830936 C162.7609,66.484409 163.098514,66.200295 163.772429,66.2489627 C164.262429,65.0769925 164.798408,63.95369 165.252939,62.7462056 C165.002027,62.4791911 164.732724,62.2266454 164.399051,62.0451281" id="Fill-129" fill="#615221"></path>
                <path d="M153.345668,67.4094893 C152.750574,67.5397083 152.14497,67.6607198 151.557758,67.7975154 C151.352825,70.0125521 150.969232,73.3298459 150.690733,75.8211045 C150.583012,76.8036654 150.685479,77.7914876 150.455586,78.4702043 C150.265103,79.0344862 149.62403,79.3922594 149.365237,79.8697287 C149.153735,79.9276038 149.210223,79.7145183 149.053896,79.7145183 C149.369178,80.0486153 149.746202,80.3208912 149.986604,80.731278 C150.372824,80.4129651 151.256927,79.7224103 151.310787,79.248887 C151.675989,76.2275454 151.996525,71.8421935 152.332826,68.5761981 C152.766338,68.5183231 153.177518,68.4380872 153.578188,68.3460132 C153.48229,68.0487458 153.800199,67.3424069 153.345668,67.4094893" id="Fill-131" fill="#615221"></path>
                <path d="M136.692094,73.39364 C136.686839,73.6764386 136.732818,74.0105356 136.53314,74.0960329 C136.686839,73.9105696 136.485847,73.3712791 136.766973,73.3147194 C136.815579,73.0937419 136.692094,72.6991391 136.83003,72.5636589 C136.807697,73.0253441 136.787992,73.5251742 136.76566,74.0131663 L136.76566,73.39364 L136.692094,73.39364 Z M131.26268,52.2008419 C130.632117,48.5744427 130.017317,44.9362054 129.405145,41.2927067 C131.043297,40.9612404 132.555335,40.5021858 134.227642,40.2036031 C135.695016,39.7761168 137.245151,39.4341278 138.821559,39.1171302 C139.988102,38.7317349 141.318853,38.5081266 142.556334,38.1858677 L142.556334,37.1743694 C142.736307,37.3861395 142.583921,37.9254299 142.635154,38.2634729 C142.666683,40.1799269 142.828264,42.3765489 142.782286,44.1062242 C142.782286,44.8638615 142.916281,45.4794418 142.861106,46.2910081 C143.039766,46.4225424 142.888693,46.8842276 142.938613,47.1446654 C142.938613,47.561629 142.937299,47.9759618 142.937299,48.3916101 L142.937299,48.4705306 L142.937299,48.863818 C143.114645,49.1216251 142.962259,49.7148446 143.013492,50.108132 L143.013492,50.4172375 L142.857165,50.4172375 C142.664055,50.4053994 142.535315,50.4580131 142.46569,50.5724479 C142.670624,50.5527178 142.801991,50.6066468 142.777031,50.8105249 C142.661428,50.4659052 142.199015,50.9315364 142.155663,50.5724479 C139.323383,51.3432386 136.495043,52.11666 133.595765,52.8256296 C132.994102,53.07686 132.246622,53.1847181 131.572707,53.368866 C131.282385,53.1623572 131.420321,52.5336235 131.26268,52.2008419 L131.26268,52.2008419 Z M136.848421,72.195363 L136.848421,71.6797487 L136.848421,70.901066 C135.122254,71.1194128 133.413164,71.7705073 131.790777,71.8323284 C131.962868,70.6787731 132.271582,69.6633287 132.492279,68.558441 C143.135664,66.3447196 153.74358,64.0941686 164.398788,61.8883393 C159.212404,57.5240329 153.970846,53.2149709 148.771325,48.8664487 C147.938455,49.0703268 147.222503,49.393901 146.281913,49.4846597 C146.094057,49.4517761 146.112449,49.628032 145.893065,49.5635802 L145.736738,49.5635802 C145.786658,49.3044577 145.638213,48.8401418 145.816872,48.7059769 C145.861537,48.5468205 145.718347,48.195624 145.894379,48.1627405 C145.910143,44.5376566 146.576176,40.8928426 146.758776,37.1796307 C148.16178,36.8955168 149.462317,36.5114368 150.882398,36.2470529 C151.640388,30.7462907 152.280147,25.1218862 152.997413,19.5777176 C152.665054,19.5803483 152.453552,19.7079365 152.063391,19.6553228 C152.010844,19.2607201 152.1987,19.1120864 152.144839,18.7201143 C139.437672,21.2232111 127.081257,23.6223958 114.558004,26.1636374 C114.420068,26.7805331 114.450283,27.5697386 114.24535,28.1116597 C113.83417,29.7532071 114.33468,30.5003216 114.942911,31.5394422 C115.849346,33.0968077 116.807014,34.6817954 117.659588,36.0615896 C117.720017,36.0458055 117.746291,35.9958225 117.738408,35.9103252 C117.734467,35.9076946 117.734467,35.9076946 117.730526,35.9037485 C117.649079,35.9037485 117.546612,35.8669189 117.659588,35.8274587 C117.693744,35.8537655 117.705567,35.8774417 117.730526,35.9037485 L117.738408,35.9037485 C117.738408,35.9076946 117.735781,35.9076946 117.738408,35.9103252 C117.945969,36.1378795 117.918382,36.2944052 118.125942,35.9826691 C118.224468,36.3864792 117.854012,36.2062773 117.815915,36.2983513 C118.845835,38.3279247 120.103021,40.1325746 121.157901,42.1437333 C121.406186,42.1871396 121.398304,41.9964149 121.546749,42.1437333 C122.805248,41.7188776 124.275249,41.4992154 125.590237,41.1322349 C125.563963,41.5228916 125.775465,41.6767867 125.746564,42.0674434 C126.719996,45.8964054 127.527906,49.8871545 128.461928,53.7542614 C128.443536,53.9055257 128.54863,53.9292019 128.536807,54.0659975 L128.536807,54.2238386 C127.912812,54.2988131 127.484554,54.5684584 126.823776,54.61318 C125.881872,54.9143934 124.918949,55.1919307 123.869324,55.3879167 C123.869324,55.6457239 123.866697,55.907477 123.866697,56.1665995 C123.816777,56.4020458 123.965222,56.8374241 123.78919,56.9439669 C123.787876,57.3096321 123.787876,57.6726666 123.787876,58.0383318 C123.737957,58.3224458 123.887716,58.8117532 123.71037,58.9709096 L123.71037,59.9061182 C123.707742,60.2967749 123.707742,60.6874316 123.707742,61.0741423 C124.042729,61.464799 124.346188,61.89097 124.640451,62.3197716 C124.664097,62.5065502 124.911067,62.46709 124.871657,62.7104283 C125.387931,63.5443555 126.323267,63.9560577 126.27072,65.3608434 C126.449379,65.5699829 126.298307,66.1132193 126.346913,66.4525777 L126.346913,66.6051574 C126.346913,66.7643139 126.345599,66.9195243 126.345599,67.0747347 L126.345599,67.1549706 L126.345599,67.2312604 C126.395519,67.2338911 126.43887,67.2404678 126.425733,67.310181 C126.872382,67.690315 127.287503,68.1072785 127.667155,68.554495 C127.830051,68.838609 128.130882,68.9780353 128.29115,69.2568879 C128.739113,69.4923342 129.38544,70.5959065 129.690213,70.4275427 C129.741446,70.1144912 129.58906,69.5988769 129.770347,69.4173596 C130.511259,70.2118265 131.093216,71.5587372 131.86697,72.0664594 C131.665978,73.2292222 132.523807,73.3265575 132.875872,73.9368764 C133.385577,74.5182578 133.925497,75.0693863 134.429948,75.6494523 C135.219466,75.7796712 136.062844,76.2453025 136.688153,76.2768707 C136.689467,75.8059781 136.689467,75.3416622 136.689467,74.8747156 C136.736759,74.6405846 136.594882,74.215729 136.761719,74.1039249 C136.720995,75.1417301 136.689467,76.0835153 136.688153,76.2768707 C136.79062,76.4333964 137.032336,76.4478652 137.2307,76.5110017 C137.201799,76.1413904 137.603784,72.5715509 137.548609,71.7599846 C138.690192,71.3745893 145.992905,69.8593147 147.740091,69.5857235 C147.741404,69.2463651 147.741404,68.9096374 147.741404,68.5715944 C144.181348,69.3963142 140.466279,70.0592468 136.923301,70.901066 C136.90885,70.9747251 136.879949,71.5008621 136.848421,72.195363 L136.848421,72.195363 Z" id="Fill-133" fill="#615221"></path>
                <path d="M142.556203,37.1737117 C137.892661,38.2641306 133.246196,39.3782257 128.549812,40.431815 C129.320939,44.7974367 130.030323,49.2275102 130.794881,53.6036546 C131.031342,53.5036886 131.358447,53.4918505 131.572576,53.3682083 C132.246491,53.1853757 132.993971,53.0775177 133.595634,52.8249719 C136.494912,52.1173176 139.323251,51.3425809 142.155532,50.5717902 C142.198883,50.9321941 142.661296,50.4665628 142.7769,50.8098672 C142.80186,50.6059891 142.670492,50.5533754 142.465559,50.5717902 C142.535184,50.4586708 142.663924,50.4047417 142.857034,50.4165798 L143.013361,50.4165798 L143.013361,50.1074743 C142.962128,49.7141869 143.114514,49.1209675 142.937168,48.8631603 L142.937168,48.4698729 L142.937168,48.3922677 C142.937168,47.9766195 142.938482,47.5622866 142.938482,47.1440077 C142.888562,46.8848852 143.039634,46.4232 142.860975,46.2916658 C142.916149,45.4787841 142.782154,44.8632038 142.782154,44.1055666 C142.828133,42.3758912 142.666551,40.1792693 142.635023,38.2641306 C142.58379,37.9247723 142.736176,37.3867972 142.556203,37.1737117 M114.245218,28.1123173 C114.450152,27.5690809 114.419937,26.7811907 114.557873,26.1642951 C127.081125,23.6217381 139.437541,21.2225534 152.144708,18.7194567 C152.198568,19.1114287 152.010713,19.2613778 152.06326,19.6546652 C151.456343,24.9423419 150.746959,30.1300527 150.104572,35.3887919 C148.789585,35.7320963 147.458833,36.0635626 146.059771,36.3226851 C145.475186,40.6988295 145.192746,45.3827641 144.725078,49.8746587 C145.170413,49.8233604 145.539556,49.7036642 145.892934,49.5629225 C146.112318,49.6286897 146.093926,49.4524338 146.281781,49.4853173 C147.222372,49.3932434 147.938324,49.0709845 148.771193,48.8671064 C153.970714,53.2143133 159.212273,57.5246906 164.398657,61.8876816 C153.743449,64.0935109 143.135533,66.3440619 132.492148,68.5590987 C132.27145,69.6639864 131.962737,70.6794308 131.790646,71.8329861 C133.413033,71.771165 135.122123,71.1200705 136.84829,70.9004083 L136.84829,71.6804064 L136.84829,72.5366943 C136.668317,72.6458678 136.818075,73.0786154 136.766842,73.3153771 C136.485716,73.3719368 136.686708,73.9099119 136.533008,74.0966905 C136.732687,74.0098779 136.686708,73.6757809 136.691963,73.3929823 L136.765528,73.3929823 L136.765528,74.0966905 C136.589496,74.2032333 136.736628,74.6372963 136.689335,74.8740579 C136.689335,75.3423199 136.689335,75.8066358 136.688022,76.2775284 C136.062713,76.2459601 135.219334,75.7803289 134.429816,75.65011 C133.925366,75.070044 133.385446,74.5176001 132.87574,73.9362187 C132.523676,73.3272152 131.665847,73.2298798 131.866839,72.0671171 C131.093085,71.5593949 130.511127,70.2111688 129.770215,69.416702 C129.588928,69.5995346 129.741315,70.1151488 129.690081,70.426885 C129.385309,70.5965642 128.738982,69.4929918 128.291019,69.2575455 C128.130751,68.9773776 127.829919,68.8379513 127.667024,68.5538373 C127.287372,68.1079362 126.872251,67.6909726 126.425602,67.3095233 C126.438739,67.2411255 126.395387,67.2332335 126.345468,67.2319181 L126.345468,67.1543129 L126.345468,67.0753924 C126.345468,66.9201819 126.346782,66.7649715 126.346782,66.6044997 L126.346782,66.45192 C126.298176,66.113877 126.449248,65.5706406 126.270588,65.3601858 C126.323135,63.9567153 125.3878,63.5436978 124.871526,62.711086 C124.910936,62.4664323 124.663965,62.5072079 124.640319,62.3204293 C124.346056,61.8916276 124.042598,61.4654567 123.707611,61.0747999 C123.707611,60.6867739 123.707611,60.2961172 123.710238,59.9054605 L123.710238,58.970252 C123.887584,58.8110955 123.737825,58.3231035 123.787745,58.0389895 C123.787745,57.6720089 123.787745,57.3089744 123.789059,56.9446246 C123.965091,56.8380818 123.816646,56.4027035 123.866565,56.1659418 C123.866565,55.9068193 123.869193,55.6450662 123.869193,55.3872591 C124.918818,55.1925884 125.881741,54.9150511 126.823645,54.6125223 C127.484423,54.5678007 127.912681,54.2994708 128.536676,54.223181 L128.536676,54.0653399 C128.548499,53.9285442 128.443405,53.9048681 128.461796,53.754919 C127.527774,49.8878121 126.719865,45.8957477 125.746433,42.0667857 C125.775333,41.6774444 125.563832,41.5235493 125.590105,41.1328926 C124.275118,41.4998731 122.805117,41.71822 121.546617,42.1443909 C121.398172,41.9970726 121.406054,42.1877972 121.15777,42.1443909 C120.10289,40.1319169 118.845704,38.3272671 117.815784,36.2976936 C117.85388,36.2056196 118.224336,36.3871369 118.125811,35.9820114 C117.893291,36.3345232 117.974738,36.0964462 117.659457,35.826801 C117.541226,35.868892 117.656829,35.9070369 117.738277,35.9044062 C117.751414,35.9964802 117.722513,36.0451478 117.659457,36.060932 C116.806882,34.682453 115.849214,33.09615 114.942779,31.5400998 C114.334548,30.4996639 113.834039,29.7525494 114.245218,28.1123173" id="Fill-135" fill="#EDC022"></path>
                <path d="M164.399051,62.0451281 C163.982616,63.2157829 163.462402,64.2759489 162.994734,65.3939901 C162.379934,65.4505498 161.912266,65.6596892 161.28433,65.7044109 C158.662237,66.296315 155.965265,66.8171906 153.3458,67.4090947 C152.750705,67.5393136 152.145102,67.6616405 151.55789,67.7971208 C150.232393,68.0023142 149.033008,68.3324652 147.741667,68.5718575 C144.181611,69.3965772 140.466542,70.0595098 136.923563,70.9000137 C136.899917,70.9000137 133.412113,71.7707704 131.789726,71.8325915 C131.961817,70.6790362 132.271844,69.6635918 132.492542,68.5587041 C143.135927,66.3436673 153.743843,64.0944317 164.399051,61.8886023 L164.399051,62.0451281 Z" id="Fill-137" fill="#FDD578"></path>
                <polyline id="Fill-139" fill="#C19C2D" points="129.611786 70.6640413 129.769427 69.4170966 131.789858 71.8333807 131.788544 72.9224843"></polyline>
                <path d="M95.9502089,37.1337253 C96.8027832,37.2179072 97.5896738,37.3625949 98.4422481,37.4494075 C98.2990577,37.9018853 98.781176,37.7295754 99.0649295,37.7598283 C99.0925166,38.0439423 98.9204254,38.5240423 99.3736428,38.3833006 C99.5523025,39.2343272 99.5523025,40.0261634 99.3723292,40.8785053 C98.9204254,40.731187 99.0898893,41.215233 99.0609885,41.4980316 C98.7785486,41.5295999 98.2964303,41.35729 98.4383071,41.8097678 C97.5870465,41.8926344 96.7988422,42.0360067 95.9475816,42.1201886 C96.143319,41.3020456 95.3669377,41.4519947 95.3249002,40.873244 L94.7048462,40.873244 C94.8835058,40.0222174 94.8861331,39.2303812 94.7061598,38.3793546 C95.5206376,38.5740253 95.3708788,37.7979732 95.9502089,37.7571976 L95.9502089,37.1337253 Z" id="Fill-141" fill="#CEE6E6"></path>
                <path d="M142.936642,48.4702675 L142.936642,48.8635549 C142.936642,49.0411262 142.935329,49.2239588 142.935329,49.4028454 L142.857822,49.4028454 C142.907742,49.1187314 142.757983,48.6307393 142.936642,48.4702675" id="Fill-143" fill="#1A5C5B"></path>
                <path d="M85.9038885,50.1360173 C85.6411538,50.0834036 85.1826816,50.2333526 85.0486869,50.0557814 C85.310108,50.1031337 85.7712075,49.9558153 85.9038885,50.1360173" id="Fill-145" fill="#15A4B4"></path>
                <path d="M87.0600528,62.8338075 C86.9168624,63.0692538 86.8235916,62.6101992 86.8262189,62.4444661 C87.155951,62.3234546 86.8406693,62.8443302 87.0600528,62.8338075" id="Fill-147" fill="#15A4B4"></path>
                <path d="M83.9794878,26.448146 C83.7364581,26.7533055 83.5026242,27.0610956 83.1242861,27.2294595 C83.4421952,27.0032205 83.6589514,26.6717542 83.9794878,26.448146" id="Fill-149" fill="#EFEEEE"></path>
                <path d="M78.3737789,31.6643997 C79.851662,30.1307104 81.4976952,28.7653849 83.0465166,27.3066701 C81.5646926,28.8324673 79.9317961,30.2148923 78.3737789,31.6643997" id="Fill-151" fill="#EFEEEE"></path>
                <path d="M76.6599601,33.2207129 C77.1381374,32.6340702 77.7463683,32.1789617 78.2941703,31.6646628 C77.8278161,32.2605129 77.2130168,32.7077294 76.6599601,33.2207129" id="Fill-153" fill="#EFEEEE"></path>
                <path d="M76.5046839,33.3760549 C75.5785438,34.2402349 74.6497764,35.1017842 73.7026176,35.9436034 C74.567015,35.0189176 75.5102328,34.1705217 76.5046839,33.3760549" id="Fill-155" fill="#EFEEEE"></path>
                <path d="M73.6227463,35.9428142 C73.3875987,36.3347863 73.0066333,36.5728632 72.6887242,36.8780227 C72.967223,36.5347183 73.2772501,36.2242975 73.6227463,35.9428142" id="Fill-157" fill="#EFEEEE"></path>
                <path d="M69.1076494,40.1471749 C70.2111354,38.9936196 71.4525572,37.9781752 72.6138448,36.8785488 C71.5221819,38.0452576 70.2912695,39.0712248 69.1076494,40.1471749" id="Fill-159" fill="#EFEEEE"></path>
                <path d="M68.096252,41.0822519 C68.3734371,40.7626237 68.6269762,40.4193193 69.0289604,40.2259639 C68.7084239,40.4995552 68.4299251,40.8191834 68.096252,41.0822519" id="Fill-161" fill="#EFEEEE"></path>
                <path d="M67.0834095,42.0157504 C67.3724177,41.7092756 67.5957422,41.3370337 68.0174315,41.1594625 C67.6706216,41.4080622 67.4341604,41.7684661 67.0834095,42.0157504" id="Fill-163" fill="#EFEEEE"></path>
                <path d="M66.2257118,42.7952224 C66.4634868,42.5413613 66.6382054,42.2164717 67.0060341,42.0967755 C66.7143985,42.2940769 66.5199748,42.5952903 66.2257118,42.7952224" id="Fill-165" fill="#EFEEEE"></path>
                <path d="M62.4883099,46.2186643 C63.6587932,45.0532708 64.8686868,43.928653 66.1495188,42.872433 C64.9540756,44.0088889 63.7231632,45.1177226 62.4883099,46.2186643" id="Fill-167" fill="#EFEEEE"></path>
                <path d="M127.667286,68.554495 C127.221951,68.1756763 126.808144,67.7587128 126.425865,67.310181 C126.872514,67.690315 127.287635,68.1072785 127.667286,68.554495" id="Fill-169" fill="#CEAB2B"></path>
                <path d="M91.1379591,26.6108539 C91.4755732,26.6634676 92.0168068,26.5082572 92.2269946,26.6910898 C91.8880668,26.6345301 92.2913646,26.8449848 92.0719811,26.8449848 C91.8131874,26.7752717 91.4309083,26.8173627 91.1379591,26.6108539" id="Fill-171" fill="#B2D5D9"></path>
                <path d="M93.0818022,26.6906952 C93.2630892,26.6683344 93.3813198,26.7051639 93.4706496,26.7696157 C93.4706496,26.8735278 93.6085854,26.8393289 93.6256631,26.9274568 C93.4430625,26.9182494 92.9832766,26.9274568 92.7704615,26.9274568 C92.8519093,26.7946072 93.3208908,26.9248261 93.0818022,26.6906952" id="Fill-173" fill="#B2D5D9"></path>
                <path d="M102.418082,27.3237695 C102.598055,27.2974627 102.717599,27.3369229 102.806929,27.4040054 C103.538646,27.6631279 102.462747,27.7407331 102.418082,27.3237695" id="Fill-175" fill="#B2D5D9"></path>
                <path d="M103.663707,27.4037423 C103.483734,27.5221232 103.516576,27.5642141 103.583573,27.7917684 C103.537595,27.6549727 103.215745,27.7970297 103.197353,27.6339273 C103.390463,27.6457654 103.437755,27.5155464 103.50738,27.4037423 L103.663707,27.4037423 Z" id="Fill-177" fill="#B2D5D9"></path>
                <path d="M103.742659,27.4037423 C103.97912,27.3458673 103.968611,27.5352766 104.2077,27.4787169 C104.075019,27.6049897 103.923946,27.7167938 103.663839,27.7141632 C103.65727,27.5786829 103.680916,27.4721401 103.742659,27.4037423" id="Fill-179" fill="#B2D5D9"></path>
                <path d="M142.155007,50.5724479 L142.466347,50.5724479 C142.67128,50.5527178 142.801334,50.6066468 142.776374,50.8105249 C142.660771,50.4659052 142.199671,50.9315364 142.155007,50.5724479" id="Fill-181" fill="#EDC51F"></path>
                <path d="M134.227511,40.2034716 C135.694884,39.7759853 137.245019,39.4339962 138.821428,39.1169987 C138.902876,39.3248228 139.128828,39.3813825 139.210275,39.5878913 C138.624377,39.6615505 139.492715,40.3363212 139.363975,39.8207069 C140.547595,41.2057625 141.59328,42.7328752 142.782154,44.1060927 C142.782154,44.86373 142.916149,45.4793103 142.860975,46.2908766 C142.908267,46.5513144 142.759822,47.0143149 142.938482,47.1445339 C142.938482,47.5614974 142.937168,47.9758303 142.937168,48.3914785 C141.679982,48.2099613 141.044164,47.1629486 140.215236,46.2895612 C138.261803,44.2231582 135.889308,41.991022 134.227511,40.2034716" id="Fill-183" fill="#209BB4"></path>
                <path d="M139.364107,39.8201808 C139.492847,40.3371104 138.623195,39.6623397 139.209093,39.5873652 C139.226171,39.6978539 139.336519,39.7188994 139.364107,39.8201808" id="Fill-185" fill="#179CB5"></path>
                <path d="M122.462774,61.2255382 C122.382639,60.0561987 122.239449,58.1423754 122.544221,57.0993088 C122.362934,58.3225773 122.512693,59.8759968 122.462774,61.2255382" id="Fill-187" fill="#1A5C5B"></path>
                <path d="M67.4667395,49.1833147 C67.4063105,49.1675306 67.3747823,49.1175476 67.387919,49.0267889 C67.0542459,49.126755 66.9228785,48.9373457 66.6890446,49.1043942 C66.9071144,49.1570078 67.3248627,49.1543772 67.4667395,49.1833147 M68.8658021,49.4950509 C67.7833349,49.3556246 65.8890172,49.2372437 64.3533326,49.1030788 C62.8426077,48.9702292 62.1883981,48.8137035 61.9427411,47.4641621 C62.784806,47.790367 64.0170321,47.7219692 65.0535207,47.8574495 C65.0233062,47.9876684 65.116577,48.0021371 65.2085342,48.0113445 C65.1586146,48.1152566 65.0416976,48.1573476 64.8985072,48.1691856 C65.0062284,48.3257114 65.165183,48.0915804 65.3648614,48.2454755 C65.1454779,48.0468588 65.4423681,48.0955265 65.1336548,47.8574495 C66.3054518,47.9797763 67.4864446,48.0968418 68.7107886,48.1718163 C68.6923971,48.6808539 68.8158825,49.0530958 68.8658021,49.4950509" id="Fill-189" fill="#014243"></path>
                <path d="M65.0539148,47.8577125 L65.1327352,47.8577125 C65.4414486,48.0957895 65.145872,48.0471219 65.3652555,48.2457386 C65.1642634,48.0918435 65.0066225,48.3246591 64.8975876,48.1681334 C65.0420917,48.1562953 65.157695,48.1155197 65.2089283,48.0116076 C65.1156575,48.0024002 65.0237003,47.9879315 65.0539148,47.8577125" id="Fill-191" fill="#004238"></path>
                <path d="M78.6500445,70.6166889 C78.6290258,70.7679533 78.7551384,70.7732147 78.8063717,70.8495045 C78.5620284,70.7258623 78.5226182,71.3085591 78.5712241,71.2375306 C78.668436,71.0783741 78.7879803,70.9363171 78.8838785,70.7732147 C78.7735299,70.7547999 78.7525111,70.6429958 78.6500445,70.6166889 M78.4976584,68.1254303 C78.2730202,68.0465097 78.0431272,67.7492423 77.874977,68.0465097 C78.1836903,67.9241829 78.3505269,68.3411464 78.4976584,68.1254303 M85.0489496,50.0565706 C85.1816307,50.2341418 85.6414165,50.0828774 85.9041513,50.1354911 C85.7714702,49.9552892 85.3103707,50.1039229 85.0489496,50.0565706 M71.0438732,48.721498 C71.0465006,48.675461 70.9808169,48.6307393 70.9650528,48.7201826 C71.8819971,49.0003506 72.051461,48.6741456 71.0438732,48.721498 M86.8263503,62.4444661 C86.8224092,62.6101992 86.9169938,63.0692538 87.0601842,62.8338075 C86.839487,62.8443302 87.1560824,62.3234546 86.8263503,62.4444661 M95.928796,62.2958324 C95.6292784,62.3089858 95.2469993,62.2313806 95.1511011,62.4536735 C95.4440504,62.2839943 96.3176435,62.5562702 95.928796,62.2958324 M97.4868132,62.1432526 C97.4946952,62.1774516 96.8628181,61.9709428 97.0217726,62.1432526 C97.080888,62.1577214 97.1728451,62.144568 97.1767861,62.2195425 C95.7133535,62.2497954 97.5419875,62.3760683 97.4868132,62.1432526 M86.0591648,50.0578859 C86.3232132,49.931613 86.6279855,50.0815621 86.7606666,49.9789654 C86.6069667,50.0026415 86.6069667,49.873738 86.525519,49.8224396 C86.5123822,49.9973802 85.864741,49.931613 86.0591648,50.0578859 M68.7107886,48.1716848 C83.5566162,49.5514791 98.5403795,50.7905317 113.367816,52.1861101 C113.338915,55.8322394 113.521516,59.1863627 113.516261,62.6220373 C109.810387,62.4589348 106.235881,62.1695595 102.54183,61.9893576 C97.1886092,62.3116165 76.6874159,74.3404235 76.0003645,75.4426805 C74.8259401,75.7504706 73.6646525,76.0622068 72.4981101,76.377889 C71.238297,67.4664437 68.6923971,48.6807223 68.7107886,48.1716848" id="Fill-193" fill="#209BB4"></path>
                <path d="M86.5260444,49.8224396 C86.6074922,49.873738 86.6074922,50.0026415 86.761192,49.9789654 C86.6271973,50.0815621 86.322425,49.931613 86.0596902,50.0578859 C85.8639528,49.931613 86.511594,49.9973802 86.5260444,49.8224396" id="Fill-195" fill="#15A4B4"></path>
                <path d="M97.1773116,62.219674 C97.1720569,62.1446995 97.0814134,62.1578529 97.0209844,62.1420688 C96.8620299,61.9710743 97.493907,62.1762677 97.4873386,62.1420688 C97.5425129,62.3761998 95.713879,62.2486116 97.1773116,62.219674" id="Fill-197" fill="#15A4B4"></path>
                <path d="M146.04913,48.3931885 C145.743044,48.2287707 145.992642,48.9995614 145.81661,48.70624 C145.861274,48.5470835 145.719398,48.1945718 145.894116,48.1630035 C145.92039,48.2629696 146.030738,48.284015 146.04913,48.3931885" id="Fill-199" fill="#004238"></path>
                <path d="M70.9655783,48.7201826 C70.9800287,48.6307393 71.0457124,48.675461 71.043085,48.721498 C72.0519865,48.6741456 71.8812089,49.0003506 70.9655783,48.7201826" id="Fill-201" fill="#15A4B4"></path>
                <path d="M145.816347,48.7055823 C145.992379,49.000219 145.742781,48.2294283 146.048867,48.3925308 C146.257741,48.6266618 146.482379,48.8423779 146.436401,49.33037 C146.366776,49.3645689 146.297151,49.3987678 146.281387,49.4855804 C146.093532,49.4526968 146.111923,49.6289527 145.89254,49.5631856 L145.736213,49.5631856 C145.786132,49.3040631 145.637687,48.8397472 145.816347,48.7055823" id="Fill-203" fill="#014243"></path>
                <path d="M66.6887818,49.1049203 C66.9226158,48.9378718 67.0539832,49.1272811 67.38897,49.0259997 C67.3745196,49.1180737 67.4073614,49.1667414 67.4664767,49.1838408 C67.3246,49.153588 66.9068517,49.1562186 66.6887818,49.1049203" id="Fill-205" fill="#004238"></path>
                <path d="M106.520422,51.0887198 C106.567715,51.062413 106.638653,50.9690237 106.75557,51.0084839 C106.968385,51.0821431 106.49809,51.2215694 106.67675,51.166325 C106.43372,51.2399842 106.341763,51.0361061 106.289216,51.166325 C106.364095,50.9874384 106.327312,51.1886858 106.520422,51.0887198" id="Fill-207" fill="#C1DDDD"></path>
                <path d="M131.262155,52.201368 C131.966284,51.9724984 132.28682,51.3529721 133.285212,51.4240006 C133.593926,51.6883845 133.442853,52.4052461 133.596553,52.8261557 C132.993577,53.0773861 132.24741,53.1852442 131.572182,53.3680768 C131.283174,53.1628834 131.421109,52.5341497 131.262155,52.201368" id="Fill-209" fill="#014243"></path>
                <path d="M77.0306788,54.4898009 C76.8966841,54.3109143 76.8638423,54.033377 76.8756653,53.7084874 C76.941349,53.695334 76.9492311,53.7400557 76.9531721,53.787408 L77.1094993,53.787408 C76.7902765,53.9702406 77.187006,54.2898688 77.0306788,54.4898009" id="Fill-211" fill="#179CB5"></path>
                <path d="M128.536807,54.0654714 C128.345011,54.0786248 128.158469,54.0799402 128.150587,53.910261 L128.150587,53.8326558 C128.288523,53.8431785 128.313483,53.7392665 128.461928,53.7550506 C128.443536,53.9049996 128.547316,53.9286758 128.536807,54.0654714" id="Fill-213" fill="#004238"></path>
                <path d="M125.102338,65.7495271 C125.179845,65.8547545 125.231078,65.9849734 125.336172,66.063894 C125.35325,66.0007575 125.401856,65.97182 125.493813,65.9849734 C125.562124,66.1191384 125.73947,66.2085817 125.568693,66.3716841 L125.72502,66.3716841 C125.72502,66.4177211 125.788076,66.4598121 125.805154,66.3716841 C125.731588,66.0560019 125.212687,65.7732033 125.102338,65.7495271 M122.544615,57.099835 C122.675983,56.5302917 123.334133,56.4895161 123.789978,56.2461777 L123.789978,56.9446246 C123.788665,57.3089744 123.788665,57.6720089 123.788665,58.0389895 C123.610005,58.1955153 123.75845,58.682192 123.709844,58.970252 L123.709844,59.9054605 C123.578477,60.1159153 123.578477,60.8617145 123.70853,61.0747999 C124.042204,61.4654567 124.345662,61.8916276 124.641239,62.3204293 C124.382445,62.181003 124.513812,62.6637337 124.561105,62.4006652 C124.77392,62.4664323 124.495421,62.7452849 124.406091,62.5558756 C124.392954,62.9004953 124.625475,62.519046 124.716118,62.711086 C124.483598,62.8886572 124.70955,63.0425523 124.871132,62.711086 C125.388719,63.5436978 126.324055,63.9567153 126.270194,65.3601858 C126.268881,65.6719219 126.268881,65.9849734 126.268881,66.2953943 C126.077084,66.0954622 125.986441,66.7965397 125.72502,66.5282099 C125.538478,66.3559 125.312526,66.2164737 125.179845,65.9849734 C124.953893,65.6903367 124.695099,65.4298989 124.403464,65.20366 C124.202472,64.9353301 123.971265,64.7025145 123.704589,64.5012671 C123.478638,64.2079457 123.21853,63.9488233 122.928208,63.7225844 C122.903248,63.5634279 122.716707,63.5700046 122.694374,63.4121635 C122.586653,63.0188761 122.62475,62.1047131 122.618181,61.3852208 C122.355446,61.8587441 122.735098,63.0044074 122.46054,63.2543224 C122.463168,62.5795517 122.463168,61.9034657 122.463168,61.2260643 C122.513087,59.8765229 122.363328,58.3231035 122.544615,57.099835" id="Fill-215" fill="#014243"></path>
                <path d="M124.871132,62.7109545 C124.710864,63.0424208 124.483598,62.8885257 124.716118,62.7109545 C124.625475,62.5189145 124.392954,62.9003638 124.406091,62.5557441 C124.495421,62.7451534 124.77392,62.4663008 124.561105,62.4005336 C124.513812,62.6636021 124.382445,62.1808714 124.641239,62.3202977 C124.663571,62.5070764 124.910542,62.4663008 124.871132,62.7109545" id="Fill-217" fill="#004238"></path>
                <path d="M125.804891,66.3723418 C125.787813,66.4591544 125.724757,66.4183788 125.724757,66.3723418 L125.569743,66.3723418 C125.739207,66.207924 125.561861,66.119796 125.49355,65.9843158 C125.401593,65.9711623 125.352987,66.0014152 125.33591,66.0632363 C125.232129,65.9843158 125.179582,65.8540969 125.102076,65.7501848 C125.212424,65.773861 125.731325,66.0553443 125.804891,66.3723418" id="Fill-219" fill="#004238"></path>
                <path d="M125.024832,65.9032907 C124.867191,65.6218074 124.563732,65.4836964 124.403464,65.2035285 C124.695099,65.4297674 124.953893,65.6902052 125.179845,65.9848419 C125.119416,65.9690578 125.102338,65.904606 125.024832,65.9032907" id="Fill-221" fill="#27522A"></path>
                <path d="M123.704589,64.5008725 C123.412954,64.2733183 123.15416,64.0128805 122.928208,63.7221898 C123.21853,63.949744 123.478638,64.2075511 123.704589,64.5008725" id="Fill-223" fill="#588F41"></path>
                <path d="M122.461197,63.2537963 C122.735755,63.0038812 122.356103,61.8582179 122.617524,61.3846946 C122.625406,62.104187 122.58731,63.01835 122.695031,63.4116374 C122.630661,63.3445549 122.482216,63.3642851 122.461197,63.2537963" id="Fill-225" fill="#004238"></path>
                <path d="M124.249107,65.20366 C124.291145,65.3194101 124.326614,65.2944186 124.402807,65.5153962 C124.471118,65.5298649 124.477686,65.483828 124.481627,65.4351603 C124.594603,65.4719899 124.473745,65.5048734 124.481627,65.5930014 C124.548625,65.6061548 124.555193,65.5627485 124.557821,65.5153962 C124.653719,65.9468285 124.113799,65.1142167 124.015273,65.2812652 C123.654013,64.8472022 124.079643,65.1655151 124.249107,65.20366" id="Fill-227" fill="#8BB43E"></path>
                <path d="M125.493944,66.4507362 C125.237778,66.1547842 124.642684,66.1284773 124.868636,65.7483433 C124.906732,65.8562014 124.931692,66.2087132 125.10247,66.0627102 C125.265365,66.1574148 125.396733,66.2876337 125.493944,66.4507362" id="Fill-229" fill="#8BB43E"></path>
                <path d="M125.493944,66.4507362 C125.396733,66.2876337 125.265365,66.1574148 125.10247,66.0627102 C125.10247,65.985105 125.039413,65.9680055 125.024963,65.9035537 C125.10247,65.9048691 125.119547,65.9680055 125.179976,65.985105 C125.312657,66.2166052 125.538609,66.3560316 125.725151,66.5283414 C125.901183,66.7703644 126.10743,66.9768732 126.345205,67.1544444 L126.345205,67.2320496 C126.014159,67.0163335 125.822363,66.6625064 125.493944,66.4507362" id="Fill-231" fill="#588F41"></path>
                <path d="M126.345731,67.2319181 C126.39565,67.2332335 126.439001,67.2411255 126.425865,67.3108387 C126.808144,67.7580551 128.131013,68.9773776 128.291281,69.2575455 C127.303399,68.2236863 126.773988,68.1039902 126.345731,67.2319181" id="Fill-233" fill="#8BB43E"></path>
                <path d="M95.1508384,62.4535419 C95.2467366,62.2312491 95.6290157,62.3088543 95.9285333,62.2957008 C96.3186944,62.557454 95.4437877,62.2838628 95.1508384,62.4535419" id="Fill-235" fill="#15A4B4"></path>
                <path d="M85.5780974,65.867908 C85.5570786,65.7455811 85.6529768,65.7376891 85.6569179,65.637723 C87.210994,65.6903367 88.9765715,65.5364417 90.4032213,65.7166436 C88.8373221,65.8152943 86.8878302,65.5153962 85.5780974,65.867908" id="Fill-237" fill="#59755A"></path>
                <path d="M126.345731,67.0751293 C125.971334,66.9041348 126.206481,66.6660578 125.88069,66.6857879 C125.988411,66.3056539 126.201226,66.8133761 126.347044,66.6042367 C126.347044,66.7647085 126.345731,66.9199189 126.345731,67.0751293" id="Fill-239" fill="#014243"></path>
                <path d="M126.345731,67.1549706 C126.107956,66.9773993 125.901709,66.7708906 125.725677,66.5275522 C125.985784,66.7971974 126.076427,66.0961199 126.269537,66.2960519 C126.259028,66.3854952 126.287929,66.4341629 126.347044,66.4525777 L126.347044,66.6051574 C126.201226,66.8129815 125.988411,66.3052593 125.88069,66.6853933 C126.206481,66.6669785 125.971334,66.9037402 126.345731,67.0747347 L126.345731,67.1549706 Z" id="Fill-241" fill="#004238"></path>
                <path d="M77.8743202,68.0470358 C78.0437841,67.7497684 78.273677,68.0470358 78.4983152,68.1259564 C78.3511837,68.3416726 78.1830335,67.924709 77.8743202,68.0470358" id="Fill-243" fill="#15A4B4"></path>
                <path d="M121.546749,42.1443909 C122.805248,41.71822 124.275249,41.4998731 125.590237,41.1328926 C125.563963,41.5235493 125.775465,41.6774444 125.746564,42.0667857 L125.746564,42.1470216 C125.088413,42.3180161 124.409244,42.4692805 123.723506,42.6113375 C123.136294,42.724457 122.579296,42.8691446 122.011789,42.9993636 C121.889618,42.67842 121.716213,42.4127208 121.546749,42.1443909" id="Fill-245" fill="#615221"></path>
                <path d="M142.861238,46.2911396 C143.039897,46.4226739 142.888825,46.8843591 142.938744,47.1447969 C142.758771,47.014578 142.90853,46.5515775 142.861238,46.2911396" id="Fill-247" fill="#AAC06C"></path>
                <path d="M142.857691,50.4171059 L142.857691,49.4016616 L142.935197,49.4016616 C142.983803,49.6186931 142.836672,50.0238185 143.014018,50.1080005 L143.014018,50.4171059 L142.857691,50.4171059 Z" id="Fill-249" fill="#004238"></path>
                <path d="M142.936642,48.863818 C143.113988,49.1216251 142.961602,49.7148446 143.014149,50.108132 C142.83549,50.0239501 142.982621,49.6188246 142.935329,49.4017931 C142.935329,49.2229065 142.936642,49.0413892 142.936642,48.863818" id="Fill-251" fill="#588F41"></path>
                <path d="M142.857691,50.4171059 C142.663267,50.4052679 142.534527,50.4591969 142.466216,50.5723164 L142.154875,50.5723164 C139.323908,51.3431071 136.494255,52.1165284 133.59629,52.825498 C133.442591,52.4059038 133.593663,51.6877268 133.28495,51.4246583 C132.286558,51.3536298 131.966021,51.9718408 131.261892,52.2020257 C130.632642,48.5743111 130.017843,44.9360738 129.404357,41.2925751 C131.043822,40.9611088 132.555861,40.5020543 134.226854,40.2034716 C135.888651,41.991022 138.261146,44.2231582 140.214579,46.2895612 C141.044821,47.1629486 141.680639,48.2099613 142.936511,48.3914785 L142.936511,48.4703991 C142.757851,48.6295555 142.90761,49.1175476 142.857691,49.4016616 L142.857691,50.4171059 Z" id="Fill-253" fill="#198394"></path>
                <path d="M113.367947,52.1865047 C114.881299,51.9773652 116.330282,52.8020849 117.488942,52.4995562 C118.172052,52.3206696 118.869613,50.6107244 119.282107,49.9306923 C120.719266,47.5591298 122.492725,44.6061859 123.723638,42.6121267 C124.409375,42.4700697 125.088545,42.31749 125.746695,42.1478108 L125.746695,42.0675749 C126.720128,45.8965369 127.528037,49.887286 128.462059,53.7543929 C128.313614,53.7399241 128.288654,53.8438362 128.150718,53.8333134 L128.150718,53.9096033 C127.639699,54.0740211 127.252165,54.3607658 126.823908,54.6119962 C125.882004,54.914525 124.919081,55.1920622 123.868142,55.3880483 C123.868142,55.6458554 123.866828,55.9076085 123.866828,56.1654157 C123.801144,56.1522622 123.793262,56.1969839 123.789321,56.2456516 C123.333477,56.4903053 122.675326,56.5297655 122.545272,57.0993088 C122.239186,58.1423754 122.382377,60.0575141 122.462511,61.2255382 C122.462511,61.9029396 122.462511,62.5790256 122.461197,63.2537963 C119.381946,62.8907618 116.724384,62.9091766 113.515079,62.6224319 C113.521647,59.1867573 113.337733,55.8313187 113.367947,52.1865047" id="Fill-255" fill="#198394"></path>
                <path d="M85.5892637,53.7946424 C85.9873068,55.2415191 85.9899342,57.0816832 86.2841971,58.6219493 C84.0312465,58.4417474 81.8741941,58.1589487 79.6737905,57.9195564 C79.4110558,56.2845857 79.1877312,54.6167314 79.0550502,52.8554878 C81.2501991,53.1540706 83.5031497,53.3908322 85.5892637,53.7946424" id="Fill-257" fill="#EED3AE"></path>
                <path d="M126.824302,54.6126539 C127.25256,54.3614235 127.640093,54.0746788 128.151112,53.910261 C128.158995,54.0799402 128.344223,54.0786248 128.537333,54.0654714 L128.537333,54.2233125 C127.913338,54.2996024 127.483766,54.5679322 126.824302,54.6126539" id="Fill-259" fill="#014243"></path>
                <path d="M123.867091,56.1660733 C123.817171,56.402835 123.965616,56.8382133 123.789584,56.9447561 L123.789584,56.2463092 C123.793525,56.1976416 123.801407,56.1529199 123.867091,56.1660733" id="Fill-261" fill="#588F41"></path>
                <path d="M123.709713,58.9709096 C123.758319,58.6828496 123.609874,58.1961729 123.788533,58.0396472 C123.7373,58.3224458 123.888372,58.8117532 123.709713,58.9709096" id="Fill-263" fill="#588F41"></path>
                <path d="M123.708268,61.0746684 C123.579528,60.8615829 123.579528,60.1157837 123.709581,59.9053289 C123.708268,60.2959857 123.708268,60.6866424 123.708268,61.0746684" id="Fill-265" fill="#588F41"></path>
                <path d="M126.269537,66.2953943 C126.269537,65.9849734 126.269537,65.6719219 126.270851,65.3601858 C126.449511,65.5706406 126.298438,66.113877 126.347044,66.45192 C126.287929,66.4348206 126.259028,66.3861529 126.269537,66.2953943" id="Fill-267" fill="#588F41"></path>
                <path d="M106.660854,51.1657989 C106.429648,51.2249893 106.339004,51.0421567 106.289084,51.1657989 C106.363964,50.9882277 106.327181,51.1894751 106.520291,51.0881937 C106.568897,51.0618868 106.638522,50.9684975 106.755439,51.0092731 C106.905197,51.0618868 106.719969,51.1421227 106.660854,51.1657989 M122.012446,43.0001528 C121.888961,42.6792092 121.715556,42.4121947 121.546092,42.1438648 C121.397647,41.9965464 121.405529,42.1872711 121.158558,42.1438648 C120.102364,40.1327061 113.833513,29.7533386 114.246007,28.1117912 C110.925039,27.9526348 87.0660957,26.3347635 85.458159,26.217698 C84.7356384,26.163769 84.3152628,26.1229934 83.9789623,26.447883 C83.7359327,26.7530424 63.7221123,45.1178542 62.4885726,46.2187958 C62.1194303,46.4739723 61.8422451,46.8159613 61.7870708,47.3841893 C61.8645776,47.3841893 61.879028,47.4499564 61.9420843,47.4644251 C62.7841492,47.7893147 67.4857877,48.0971049 68.7114454,48.1720794 C83.557273,49.5518737 116.330807,52.8020849 117.489467,52.4995562 C118.172578,52.3206696 122.491937,44.6061859 123.724163,42.6121267 C123.136951,42.7239308 122.579953,42.8699339 122.012446,43.0001528" id="Fill-269" fill="#C5DEE6"></path>
                <path d="M76.4876061,52.4645681 C76.6741478,54.1995048 76.9198048,55.8726204 77.1050328,57.6049265 C75.3828064,57.537844 73.9009824,57.2313692 72.2063432,57.1340339 C72.1997748,55.4503955 71.5232328,53.3721544 71.9764503,51.9910448 C73.4477649,51.8831867 74.9624308,52.3672327 76.4876061,52.4645681" id="Fill-271" fill="#EED3AE"></path>
                <path d="M77.4140089,60.178131 C77.7489957,62.6693896 78.0787278,65.1698557 78.3414626,67.7321429 C76.6744105,67.3270174 74.8484039,67.0744716 73.2102527,66.6404086 C72.7938181,64.4582554 72.7544079,61.9051757 72.4338715,59.6243718 C74.1219423,59.7822129 75.7771713,59.9676762 77.4140089,60.178131" id="Fill-273" fill="#EED3AE"></path>
                <path d="M80.9098262,67.8916939 C80.5511933,65.4451569 80.2306569,62.9670516 79.9823725,60.4113412 C82.1289155,60.7322848 84.4567455,60.867765 86.5940927,61.19397 C86.6151115,61.9529226 86.7635567,62.5869177 86.8252993,63.298518 C85.6692664,63.5839473 84.7010888,63.1932906 83.8695333,63.6102541 C83.2560476,63.9167289 82.7923208,65.0873837 82.3877092,65.7108561 C81.853044,66.5421525 81.357789,67.2734829 80.9098262,67.8916939" id="Fill-275" fill="#EED3AE"></path>
                <path d="M147.739959,69.585592 C147.917305,69.69345 147.76886,70.1301437 147.81878,70.3669054 C147.642747,70.2590473 147.789879,69.8236689 147.739959,69.585592" id="Fill-277" fill="#FDD578"></path>
                <path d="M147.892214,73.637636 C148.072187,73.7967924 147.921115,74.2821538 147.969721,74.5728445 C147.793689,74.4123727 147.942134,73.9270113 147.892214,73.637636" id="Fill-279" fill="#FDD578"></path>
                <path d="M64.9461936,83.534799 C64.9461936,84.0556746 64.9448799,84.5752349 64.9448799,85.0947952 C64.8148262,84.7541215 64.8148262,83.876788 64.9461936,83.534799" id="Fill-281" fill="#EFEEEE"></path>
                <path d="M64.9446171,85.1739788 C65.1259041,85.6382947 64.9682633,86.4419689 65.0194965,87.0404498 L64.9433035,87.0404498 C64.9433035,86.4182928 64.9433035,85.7948204 64.9446171,85.1739788" id="Fill-283" fill="#6C8B6A"></path>
                <path d="M111.460361,94.4851567 C111.591729,94.7219183 111.591729,95.4940244 111.460361,95.7281553 L111.460361,94.4851567" id="Fill-285" fill="#59755A"></path>
                <path d="M138.456883,98.398169 C138.741951,98.3994844 139.027018,98.3994844 139.313399,98.3994844 C139.204364,98.532334 138.567232,98.532334 138.456883,98.398169" id="Fill-287" fill="#59755A"></path>
                <path d="M78.312299,99.6733936 C78.2295376,99.8022971 77.6199929,99.8022971 77.5346041,99.6720782 C77.7947115,99.6733936 78.0548189,99.6733936 78.312299,99.6733936" id="Fill-289" fill="#DBE0D0"></path>
                <path d="M72.5612978,96.4765852 C72.1685094,96.2424542 71.8282679,95.9570249 71.6233347,95.5413767 C71.8978926,95.8912578 72.2538982,96.156957 72.5612978,96.4765852" id="Fill-291" fill="#DBE0D0"></path>
                <path d="M129.223727,70.2704908 C129.100242,70.0837121 128.945228,69.9245557 128.758687,69.8035442 C128.648338,69.5733593 132.523676,73.3273467 132.87574,73.9363503 C132.372603,73.5825232 132.067831,73.0340253 131.555498,72.6894056 C130.966972,71.8541631 130.173513,71.2109607 129.457561,70.5072524 C129.412896,70.394133 129.336703,70.3152124 129.223727,70.2704908" id="Fill-293" fill="#CEAB2B"></path>
                <path d="M102.542093,61.988963 C104.971076,67.404228 107.189871,73.019425 109.532151,78.5109799 C113.714888,81.0522216 118.220789,83.265943 122.361489,85.8453296 C122.395645,87.3395586 120.651086,95.440753 120.096716,97.0599396 C117.305159,97.0204793 66.7536773,91.7696321 65.2508345,91.5591773 C65.1023894,91.369768 64.9500032,78.9384662 64.9500032,78.6293607 C65.0248826,78.62673 65.0091185,78.5333407 65.02751,78.4702043 C67.4092006,77.66653 74.8262028,75.750076 76.0006272,75.4422859 C76.6876786,74.3400289 83.2547339,63.9159397 83.8695333,63.6107803 C84.7010888,63.1938167 97.1888719,62.3112219 102.542093,61.988963" id="Fill-295" fill="#347E3E"></path>
                <path d="M109.831537,90.119535 C109.416416,89.7841227 109.065665,89.3829432 108.666309,89.0278007 C109.152368,89.2961306 109.472904,89.7275629 109.831537,90.119535" id="Fill-297" fill="#59755A"></path>
                <path d="M65.2504404,91.5590458 C66.7532832,91.7695006 68.3034183,91.9352337 69.9166097,92.0325691 C69.9862345,92.4561094 70.1176018,92.8191439 70.2266368,93.2019086 C68.4558045,92.7625842 65.6406015,93.3729031 65.2504404,91.5590458" id="Fill-299" fill="#27522A"></path>
                <path d="M124.015667,65.2806075 C124.114193,65.1148744 124.654113,65.9461708 124.558215,65.5160538 C124.555587,65.5634062 124.547705,65.6054971 124.480708,65.5923437 C124.47414,65.5055311 124.593684,65.4713322 124.480708,65.435818 C124.478081,65.4831703 124.470198,65.5305226 124.403201,65.5160538 C124.327008,65.293761 124.291539,65.3187525 124.249501,65.2030023 C124.078724,65.1648574 123.654407,64.8465445 124.015667,65.2806075 M102.542355,61.9883053 C106.235092,62.1698226 109.809599,62.4591979 113.515473,62.6223004 C116.723464,62.909045 119.38234,62.8906302 122.461591,63.2536648 C122.48261,63.3641535 133.926023,75.0693863 134.430473,75.6494523 C135.218678,75.7796712 148.652306,80.349171 154.421961,82.211696 C154.658422,82.4168894 155.115581,82.39979 155.35467,82.6023527 C144.396003,83.7243398 133.386103,84.7897672 122.361752,85.8459873 C118.221052,83.2652853 113.715151,81.0528792 109.5311,78.5103222 C107.190133,73.0187674 104.970025,67.4035703 102.542355,61.9883053" id="Fill-301" fill="#85B140"></path>
                <path d="M128.758424,69.8030181 C128.944966,69.9240296 129.099979,70.0845014 129.223464,70.2699646 C128.754483,70.4777888 129.123625,70.0818707 128.758424,69.8030181" id="Fill-303" fill="#8BB43E"></path>
                <path d="M131.630772,75.9602678 C130.236964,76.6166237 128.550207,76.4903508 126.960661,76.6573993 C122.358862,77.144076 117.318296,77.6912585 112.568051,78.1266368 C111.76671,77.2006357 111.31612,76.0128815 110.777514,74.9303546 C109.70687,72.7560935 108.579737,70.5726249 107.516975,68.3049745 C106.995447,67.1935101 106.255849,66.0991452 106.121854,64.7982714 C107.312042,64.4181375 108.692713,64.5838706 110.010328,64.6456917 C113.238025,64.7969561 116.589207,64.9534819 119.969289,65.0455558 C120.610362,65.0600246 121.474759,64.9876808 121.91484,65.1218457 C122.433741,65.2823175 123.070873,66.1833271 123.47023,66.601606 C125.587872,68.856103 127.629321,71.1803132 129.764041,73.4663784 C130.472111,74.2240157 131.440289,74.889579 131.630772,75.9602678" id="Fill-305" fill="#EFEEEE"></path>
                <path d="M105.566695,77.0284574 C105.68624,77.1520996 105.755864,77.8886914 105.410368,77.8045095 C105.646829,77.7321656 105.545676,77.3230941 105.566695,77.0284574" id="Fill-307" fill="#59755A"></path>
                <path d="M151.558021,67.7969892 C151.353088,70.0133413 150.685741,77.7922768 150.455849,78.4709935 C150.265366,79.0339601 149.624293,79.3917332 149.365499,79.8705179 C149.153998,79.928393 149.210486,79.7153075 149.054159,79.7153075 C148.909655,79.2549376 148.301424,79.1089346 148.12145,78.545968 C147.781209,77.4660718 147.741798,68.909769 147.741798,68.571726 C149.03314,68.3323336 150.232524,68.0021827 151.558021,67.7969892" id="Fill-309" fill="#EDC022"></path>
                <path d="M78.8834844,70.7736093 C78.7875862,70.9367117 78.6680419,71.0787687 78.57083,71.2379252 C78.5235377,71.3089537 78.5616343,70.726257 78.8059776,70.8485838 C78.756058,70.7736093 78.6286317,70.7683479 78.6496504,70.6170835 C78.752117,70.6433904 78.7731358,70.7538791 78.8834844,70.7736093" id="Fill-311" fill="#15A4B4"></path>
                <path d="M142.293862,71.6077995 C142.312253,71.6761973 142.133594,71.5788619 141.903701,71.6077995 C142.058714,71.5130948 141.886623,71.3381543 141.826194,71.5301943 C141.660671,71.2710718 142.200591,71.4565351 142.293862,71.6077995" id="Fill-313" fill="#004238"></path>
                <path d="M141.280363,72.4630352 C141.196287,72.3236089 141.893848,71.8855998 141.983178,71.9184834 C141.77299,72.1249921 141.562802,72.3301856 141.280363,72.4630352" id="Fill-315" fill="#004238"></path>
                <path d="M141.825669,71.5295366 C141.886098,71.3388119 142.059502,71.5137525 141.903175,71.6071418 C142.133068,71.5782043 142.311728,71.6755396 142.293336,71.6071418 C142.201379,71.4571928 141.661459,71.2704141 141.825669,71.5295366 M141.280494,72.4634298 C140.003603,73.5459566 138.672851,74.5758698 137.311885,75.5755301 C137.460331,75.1322597 137.335531,74.407506 137.468213,73.9418747 C138.720144,72.9067002 140.079796,71.9872758 141.280494,70.9047489 C141.832237,70.912641 142.147519,70.67851 142.682184,70.6758793 C142.782023,71.4229939 142.407626,71.6965851 141.983309,71.918878 C141.89398,71.8859944 141.196419,72.3240035 141.280494,72.4634298" id="Fill-317" fill="#014243"></path>
                <path d="M78.3375215,71.7853707 C78.3309532,71.9839874 78.1956448,72.058962 78.1036876,72.1733968 C77.751623,72.4996017 78.2271729,71.3828759 78.3375215,71.7853707" id="Fill-319" fill="#15A4B4"></path>
                <path d="M142.347985,97.2368532 C142.652758,96.8698726 142.991685,96.5318296 143.360828,96.2253548 C143.054742,96.5962814 142.718441,96.9356397 142.347985,97.2368532" id="Fill-321" fill="#59755A"></path>
                <path d="M73.5688856,97.1763474 C81.114628,100.151652 84.6668019,89.3276988 79.8824019,84.9515544 L79.9599087,84.9515544 C81.7767195,86.090641 83.0010635,87.8255777 83.2243881,90.5667514 C83.2243881,91.0823657 83.2230744,91.6032413 83.2230744,92.1214862 C83.2716803,92.666038 83.1206078,93.0093424 83.0667472,93.4473515 C82.3810095,97.3999556 77.1263143,100.308178 73.5688856,97.2539526 L73.5688856,97.1763474 Z" id="Fill-323" fill="#7A8283"></path>
                <path d="M69.9171352,92.0324376 C69.4153118,87.5326509 71.3293345,84.0391013 75.3715088,83.3893221 L76.5380512,83.3893221 C78.1105187,83.4800807 78.9762297,84.2732323 79.9601714,84.951949 L79.8826647,84.951949 C84.6670646,89.3280934 81.1148907,100.150731 73.5691484,97.176742 C73.5074057,97.1214976 73.3563332,97.0530998 73.3353144,97.176742 C73.0541882,96.9636565 72.9136252,96.6098294 72.5615606,96.4769798 C72.2541609,96.1573516 71.8981553,95.8903371 71.6235975,95.5417713 C70.9877794,94.9314524 70.6908891,93.9817751 70.2258486,93.2030924 C70.1168136,92.8190124 69.9867599,92.4559778 69.9171352,92.0324376" id="Fill-325" fill="#93938B"></path>
                <path d="M101.731162,100.864305 C105.08103,102.622918 108.490014,100.264508 109.671006,97.5996246 C111.014895,94.5585528 110.021757,90.6861845 108.199692,88.7158015 C108.366528,88.8078755 108.572775,88.8604892 108.666046,89.0275377 C109.066716,89.3826801 109.416154,89.7838596 109.831274,90.1192719 C110.683849,91.2636199 111.387978,92.5592322 111.46023,94.4848936 L111.46023,95.7278923 L111.46023,96.2777054 C110.899291,99.0780696 109.178379,101.927101 106.088618,102.26909 C104.270493,102.470338 102.85698,101.811351 101.731162,100.94191 L101.731162,100.864305 Z" id="Fill-327" fill="#7A8283"></path>
                <path d="M105.410105,77.8051671 C105.421928,77.8748803 105.377263,77.8801416 105.329971,77.8827723 C105.265601,77.8683036 105.257719,77.9156559 105.253778,77.9630082 C102.735465,77.8117438 92.5689439,77.1882715 90.2384866,76.7029101 C90.2726421,74.8509079 91.9094797,67.431061 92.5032602,65.7198004 C95.0662378,65.4777774 97.7185452,65.2081322 100.285464,65.1818253 C101.022435,65.9684001 104.402518,73.9893586 105.566433,77.0291151 C105.545414,77.3224364 105.646567,77.7328233 105.410105,77.8051671" id="Fill-329" fill="#7A8283"></path>
                <path d="M147.816941,71.5340088 C147.998228,71.8233841 147.843214,72.4415951 147.894447,72.8585587 C147.714474,72.5731293 147.86686,71.9509723 147.816941,71.5340088" id="Fill-331" fill="#EED3AE"></path>
                <path d="M137.468475,73.9424009 C137.42381,73.1413573 137.603784,72.5704986 137.548609,71.7602477 C138.690192,71.3748523 140.091882,71.2459488 141.280757,70.9052751 C140.080059,71.9864866 138.720406,72.9072263 137.468475,73.9424009" id="Fill-333" fill="#198394"></path>
                <path d="M90.4036154,65.7170382 C90.4929452,65.7078308 90.5415511,65.7380837 90.5586289,65.7985894 C90.9776908,66.5706954 90.449594,67.4743357 90.2459745,68.2885327 C89.6114701,70.8153056 89.0229442,73.6735449 88.2925416,76.1555961 C85.3118157,76.1029824 82.1222158,76.2568775 79.2662889,76.0727295 C80.6509011,73.3815388 82.2969344,70.8784421 83.8641472,68.281956 C84.3751663,67.4414522 84.859912,66.5430733 85.5784915,65.8683026 C86.8869106,65.5157908 88.8364026,65.8143735 90.4036154,65.7170382" id="Fill-335" fill="#7A8283"></path>
                <path d="M75.3713775,83.3898482 C75.5802516,83.26226 76.327732,83.26226 76.5379198,83.3898482 L75.3713775,83.3898482 Z" id="Fill-337" fill="#6C8B6A"></path>
                <path d="M156.053938,83.1501928 C157.173188,84.0314723 156.592544,85.5335934 156.206324,87.1225271 C155.968549,88.0919345 155.623053,89.061342 155.503509,89.8492321 C155.064742,91.0672392 154.945197,92.6167127 154.410532,93.7426459 C151.482353,94.1569787 148.514764,94.5331667 145.54192,94.9027779 C144.539587,97.2519796 143.161543,99.2210473 140.167681,99.5722437 C139.85634,99.5709284 139.544999,99.5709284 139.233659,99.5709284 C137.19221,99.3565276 135.931083,98.3581826 135.035157,96.9968032 C135.906123,97.4269201 136.876928,98.4226344 138.457278,98.3976429 C138.566312,98.5331232 139.203444,98.5331232 139.312479,98.4002736 C140.672132,98.3621287 141.529961,97.8228382 142.348379,97.2375108 C142.718835,96.9349821 143.053822,96.596939 143.361222,96.2246971 C143.93267,95.5538725 144.345164,94.71863 144.685405,93.8110437 C147.645112,93.37435 150.709913,93.0468297 153.632837,92.5746217 C154.66013,89.6479847 155.17509,86.2188869 156.053938,83.1501928" id="Fill-339" fill="#27522A"></path>
                <path d="M156.053938,83.1501928 C155.17509,86.2188869 154.66013,89.6479847 153.632837,92.5746217 C150.709913,93.0468297 147.645112,93.37435 144.685405,93.8110437 C141.062293,94.284567 137.380065,94.6975845 133.868615,95.2842272 C129.219523,95.8169409 124.750405,96.5311719 120.097373,97.0599396 C120.650429,95.440753 120.932869,93.5913815 121.345363,91.6091603 C121.66984,90.0557409 122.396302,87.3395586 122.360832,85.8453296 C133.386497,84.7891096 144.396397,83.7236822 155.355064,82.6030104 C155.785949,82.5872263 155.952785,82.8331953 156.053938,83.1501928" id="Fill-341" fill="#2F9445"></path>
                <path d="M104.69862,87.1534377 C106.097682,87.1376536 107.262911,88.0123563 108.19956,88.7160646 C110.021626,90.6864476 111.014763,94.5588159 109.670875,97.5998877 C108.489882,100.263456 105.080899,102.623181 101.73103,100.864568 C101.599663,100.834315 101.585213,100.926389 101.574703,101.018463 C101.130682,100.29634 100.338536,99.9530354 99.7867933,99.3019409 C99.0248624,98.3969852 98.6557201,97.259214 98.1578377,96.0293688 C98.1749155,95.6479194 98.019902,95.442726 98.0790173,95.0152397 C98.080331,94.6035375 98.080331,94.1865739 98.0829583,93.7696104 C98.3877307,90.0800747 100.130976,87.819001 103.454571,87.1534377 L104.69862,87.1534377 Z" id="Fill-343" fill="#93938B"></path>
                <path d="M98.0033497,94.9378976 C98.0532693,94.5735477 97.9008831,94.0053197 98.0821701,93.7685581 C98.0808565,94.186837 98.0808565,94.6038006 98.0795428,95.0155028 C98.0322505,95.0128721 97.9888993,95.0076107 98.0033497,94.9378976" id="Fill-345" fill="#6C8B6A"></path>
                <path d="M133.868484,95.2842272 C137.379934,94.6975845 141.062161,94.284567 144.686587,93.8110437 C144.345032,94.71863 143.933852,95.5538725 143.36109,96.2246971 C142.991948,96.5311719 142.65302,96.8705303 142.348248,97.2361955 C141.529829,97.8228382 140.672,98.3621287 139.313661,98.4002736 C139.025967,98.4002736 138.742213,98.4002736 138.457146,98.3976429 C136.876797,98.4226344 135.905992,97.4256048 135.03634,96.9968032 C134.705294,96.9402434 134.868189,96.3877996 134.411031,96.4522514 C134.713176,96.1391999 133.88162,95.7866881 133.868484,95.2842272" id="Fill-347" fill="#7A8283"></path>
                <path d="M98.157575,96.0296318 C93.3219417,95.619245 88.7490432,94.9536817 83.8424716,94.616954 C82.9202726,97.2279088 81.4660357,99.2995732 78.3119049,99.6731305 C78.0544248,99.6731305 77.7943174,99.6731305 77.53421,99.6718152 C75.5374258,99.4350535 74.219811,98.5235212 73.3357085,97.1766105 C73.3567273,97.0529683 73.5077998,97.1213661 73.5695425,97.1766105 L73.5695425,97.2529003 C77.1269711,100.308441 82.3803527,97.4002187 83.0660904,93.4462992 C88.1132251,93.8724702 93.0276788,94.4354367 98.0038752,94.9378976 C97.9881111,95.0076107 98.0314623,95.0128721 98.0787546,95.0155028 C98.0196393,95.4416737 98.1759664,95.6481825 98.157575,96.0296318" id="Fill-349" fill="#27522A"></path>
                <path d="M101.731162,100.864305 L101.731162,100.94191 C102.85698,101.811351 104.270493,102.470338 106.088618,102.26909 C109.178379,101.927101 110.899291,99.0780696 111.46023,96.2777054 C114.289883,96.5355125 117.304765,97.0208739 120.097635,97.0590189 C124.750668,96.5315665 129.219786,95.8160202 133.868878,95.2846218 C133.882014,95.7870827 134.71357,96.1395945 134.411425,96.452646 C130.951208,96.8682942 127.531715,97.4010079 123.98611,97.846909 C122.845841,97.98502 121.645143,98.2980715 120.562676,98.3085942 C119.213533,98.3283244 117.78951,97.9679205 116.43774,97.8403323 C115.053128,97.6982753 113.696103,97.6956446 112.315432,97.4457295 C111.832,98.5506172 111.690123,99.8199227 110.988621,100.790645 C109.862803,102.358534 108.070952,103.521296 105.932291,103.43843 C104.015641,103.363455 102.598187,102.353272 101.574835,101.0182 C101.585344,100.926126 101.599794,100.834052 101.731162,100.864305" id="Fill-351" fill="#27522A"></path>
                <path d="M103.455227,87.1534377 C103.690375,87.0258495 104.465442,87.0258495 104.699276,87.1534377 L103.455227,87.1534377 Z" id="Fill-353" fill="#6C8B6A"></path>
                <path d="M83.2243881,90.5663568 C83.3518144,90.9017692 83.3505008,91.7804179 83.2230744,92.1210916 C83.2230744,91.6028467 83.2243881,91.0832864 83.2243881,90.5663568" id="Fill-355" fill="#6C8B6A"></path>
                <path d="M65.0177888,88.9108668 C65.0177888,89.5356545 65.0164751,90.1564961 65.0164751,90.7825991 C64.8365018,90.3130219 64.9915153,89.5093476 64.9415957,88.9108668 L65.0177888,88.9108668 Z" id="Fill-357" fill="#DBE0D0"></path>
                <path d="M64.9482954,81.4310402 C64.9469818,82.0558279 64.9469818,82.6832463 64.9456681,83.3027726 C64.7643811,82.8331953 64.9193946,82.0308364 64.869475,81.4310402 L64.9482954,81.4310402 Z" id="Fill-359" fill="#DBE0D0"></path>
                <path d="M64.9497405,79.5641746 C64.9497405,80.1850163 64.9484268,80.809804 64.9484268,81.4306456 L64.8696064,81.4306456 C64.8696064,80.809804 64.87092,80.1850163 64.87092,79.5641746 L64.9497405,79.5641746 Z" id="Fill-361" fill="#B5C5A7"></path>
                <path d="M65.020022,87.0408444 C65.0187083,87.665632 65.0187083,88.2891044 65.0173947,88.9112614 L64.9412016,88.9112614 C64.9425153,88.2891044 64.9425153,87.665632 64.9438289,87.0408444 L65.020022,87.0408444 Z" id="Fill-363" fill="#B5C5A7"></path>
                <path d="M139.234053,99.571323 C139.545394,99.571323 139.855421,99.571323 140.166761,99.5726383 C140.032767,99.7015419 139.368048,99.7015419 139.234053,99.571323" id="Fill-365" fill="#93938B"></path>
                <path d="M64.9505287,78.6290977 C64.9505287,78.9382031 64.949215,79.2538853 64.949215,79.5643062 L64.8703946,79.5643062 C64.9190005,79.2775615 64.771869,78.7869388 64.9505287,78.6290977" id="Fill-367" fill="#6C8B6A"></path>
            </g>
        </g>
    </g>
</svg>